<svg width="18" height="19" viewBox="0 0 18 19" fill="none" xmlns="http://www.w3.org/2000/svg">
<mask id="path-1-inside-1_1_692" fill="white">
<path d="M13.186 11.0833C13.4081 11.0833 13.621 10.988 13.778 10.8183C13.935 10.6487 14.0233 10.4185 14.0233 10.1786C14.0233 9.93861 13.935 9.70848 13.778 9.53881C13.621 9.36913 13.4081 9.27381 13.186 9.27381C12.964 9.27381 12.7511 9.36913 12.594 9.53881C12.437 9.70848 12.3488 9.93861 12.3488 10.1786C12.3488 10.4185 12.437 10.6487 12.594 10.8183C12.7511 10.988 12.964 11.0833 13.186 11.0833ZM13.186 14.7024C13.4081 14.7024 13.621 14.6071 13.778 14.4374C13.935 14.2677 14.0233 14.0376 14.0233 13.7976C14.0233 13.5577 13.935 13.3275 13.778 13.1579C13.621 12.9882 13.4081 12.8929 13.186 12.8929C12.964 12.8929 12.7511 12.9882 12.594 13.1579C12.437 13.3275 12.3488 13.5577 12.3488 13.7976C12.3488 14.0376 12.437 14.2677 12.594 14.4374C12.7511 14.6071 12.964 14.7024 13.186 14.7024ZM9.83721 10.1786C9.83721 10.4185 9.749 10.6487 9.592 10.8183C9.43499 10.988 9.22204 11.0833 9 11.0833C8.77796 11.0833 8.56501 10.988 8.408 10.8183C8.251 10.6487 8.16279 10.4185 8.16279 10.1786C8.16279 9.93861 8.251 9.70848 8.408 9.53881C8.56501 9.36913 8.77796 9.27381 9 9.27381C9.22204 9.27381 9.43499 9.36913 9.592 9.53881C9.749 9.70848 9.83721 9.93861 9.83721 10.1786ZM9.83721 13.7976C9.83721 14.0376 9.749 14.2677 9.592 14.4374C9.43499 14.6071 9.22204 14.7024 9 14.7024C8.77796 14.7024 8.56501 14.6071 8.408 14.4374C8.251 14.2677 8.16279 14.0376 8.16279 13.7976C8.16279 13.5577 8.251 13.3275 8.408 13.1579C8.56501 12.9882 8.77796 12.8929 9 12.8929C9.22204 12.8929 9.43499 12.9882 9.592 13.1579C9.749 13.3275 9.83721 13.5577 9.83721 13.7976ZM4.81395 11.0833C5.036 11.0833 5.24894 10.988 5.40595 10.8183C5.56296 10.6487 5.65116 10.4185 5.65116 10.1786C5.65116 9.93861 5.56296 9.70848 5.40595 9.53881C5.24894 9.36913 5.036 9.27381 4.81395 9.27381C4.59191 9.27381 4.37896 9.36913 4.22196 9.53881C4.06495 9.70848 3.97674 9.93861 3.97674 10.1786C3.97674 10.4185 4.06495 10.6487 4.22196 10.8183C4.37896 10.988 4.59191 11.0833 4.81395 11.0833ZM4.81395 14.7024C5.036 14.7024 5.24894 14.6071 5.40595 14.4374C5.56296 14.2677 5.65116 14.0376 5.65116 13.7976C5.65116 13.5577 5.56296 13.3275 5.40595 13.1579C5.24894 12.9882 5.036 12.8929 4.81395 12.8929C4.59191 12.8929 4.37896 12.9882 4.22196 13.1579C4.06495 13.3275 3.97674 13.5577 3.97674 13.7976C3.97674 14.0376 4.06495 14.2677 4.22196 14.4374C4.37896 14.6071 4.59191 14.7024 4.81395 14.7024Z"/>
<path fill-rule="evenodd" clip-rule="evenodd" d="M4.81395 0C4.98048 0 5.1402 0.0714922 5.25795 0.198749C5.37571 0.326006 5.44186 0.498603 5.44186 0.678571V1.3689C5.99609 1.35714 6.60642 1.35714 7.27786 1.35714H10.7213C11.3936 1.35714 12.0039 1.35714 12.5581 1.3689V0.678571C12.5581 0.498603 12.6243 0.326006 12.742 0.198749C12.8598 0.0714922 13.0195 0 13.186 0C13.3526 0 13.5123 0.0714922 13.63 0.198749C13.7478 0.326006 13.814 0.498603 13.814 0.678571V1.42681C14.0316 1.4449 14.2376 1.46752 14.4327 1.49557C15.4139 1.63852 16.2084 1.9389 16.8354 2.61567C17.4617 3.29333 17.7396 4.15195 17.8719 5.21233C18 6.24376 18 7.56019 18 9.22314V11.134C18 12.797 18 14.1143 17.8719 15.1448C17.7396 16.2052 17.4617 17.0638 16.8354 17.7415C16.2084 18.4182 15.4139 18.7186 14.4327 18.8616C13.4782 19 12.2601 19 10.7213 19H7.2787C5.73991 19 4.52093 19 3.56735 18.8616C2.58614 18.7186 1.79163 18.4182 1.16456 17.7415C0.538326 17.0638 0.260372 16.2052 0.128093 15.1448C0 14.1134 0 12.797 0 11.134V9.22314C0 7.56019 0 6.24286 0.128093 5.21233C0.260372 4.15195 0.538326 3.29333 1.16456 2.61567C1.79163 1.9389 2.58614 1.63852 3.56735 1.49557C3.76242 1.46752 3.96921 1.4449 4.18605 1.42681V0.678571C4.18605 0.498603 4.2522 0.326006 4.36996 0.198749C4.48771 0.0714922 4.64742 0 4.81395 0ZM3.73395 2.84095C2.89256 2.9631 2.40698 3.1929 2.05284 3.57562C1.6987 3.95833 1.48605 4.4831 1.37302 5.39329C1.35377 5.5471 1.33786 5.70995 1.32447 5.88095H16.6755C16.6621 5.70905 16.6462 5.5471 16.627 5.39238C16.514 4.4831 16.3013 3.95833 15.9472 3.57562C15.593 3.1929 15.1074 2.9631 14.2652 2.84095C13.4054 2.7161 12.271 2.71429 10.6744 2.71429H7.32558C5.72902 2.71429 4.59544 2.7161 3.73395 2.84095ZM1.25581 9.27381C1.25581 8.50114 1.25581 7.8289 1.2667 7.2381H16.7333C16.7442 7.8289 16.7442 8.50114 16.7442 9.27381V11.0833C16.7442 12.8087 16.7425 14.0347 16.627 14.9648C16.514 15.874 16.3013 16.3988 15.9472 16.7815C15.593 17.1642 15.1074 17.394 14.2652 17.5162C13.4054 17.641 12.271 17.6429 10.6744 17.6429H7.32558C5.72902 17.6429 4.59544 17.641 3.73395 17.5162C2.89256 17.394 2.40698 17.1642 2.05284 16.7815C1.6987 16.3988 1.48605 15.874 1.37302 14.9639C1.25749 14.0347 1.25581 12.8087 1.25581 11.0833V9.27381Z"/>
</mask>
<path d="M13.186 11.0833C13.4081 11.0833 13.621 10.988 13.778 10.8183C13.935 10.6487 14.0233 10.4185 14.0233 10.1786C14.0233 9.93861 13.935 9.70848 13.778 9.53881C13.621 9.36913 13.4081 9.27381 13.186 9.27381C12.964 9.27381 12.7511 9.36913 12.594 9.53881C12.437 9.70848 12.3488 9.93861 12.3488 10.1786C12.3488 10.4185 12.437 10.6487 12.594 10.8183C12.7511 10.988 12.964 11.0833 13.186 11.0833ZM13.186 14.7024C13.4081 14.7024 13.621 14.6071 13.778 14.4374C13.935 14.2677 14.0233 14.0376 14.0233 13.7976C14.0233 13.5577 13.935 13.3275 13.778 13.1579C13.621 12.9882 13.4081 12.8929 13.186 12.8929C12.964 12.8929 12.7511 12.9882 12.594 13.1579C12.437 13.3275 12.3488 13.5577 12.3488 13.7976C12.3488 14.0376 12.437 14.2677 12.594 14.4374C12.7511 14.6071 12.964 14.7024 13.186 14.7024ZM9.83721 10.1786C9.83721 10.4185 9.749 10.6487 9.592 10.8183C9.43499 10.988 9.22204 11.0833 9 11.0833C8.77796 11.0833 8.56501 10.988 8.408 10.8183C8.251 10.6487 8.16279 10.4185 8.16279 10.1786C8.16279 9.93861 8.251 9.70848 8.408 9.53881C8.56501 9.36913 8.77796 9.27381 9 9.27381C9.22204 9.27381 9.43499 9.36913 9.592 9.53881C9.749 9.70848 9.83721 9.93861 9.83721 10.1786ZM9.83721 13.7976C9.83721 14.0376 9.749 14.2677 9.592 14.4374C9.43499 14.6071 9.22204 14.7024 9 14.7024C8.77796 14.7024 8.56501 14.6071 8.408 14.4374C8.251 14.2677 8.16279 14.0376 8.16279 13.7976C8.16279 13.5577 8.251 13.3275 8.408 13.1579C8.56501 12.9882 8.77796 12.8929 9 12.8929C9.22204 12.8929 9.43499 12.9882 9.592 13.1579C9.749 13.3275 9.83721 13.5577 9.83721 13.7976ZM4.81395 11.0833C5.036 11.0833 5.24894 10.988 5.40595 10.8183C5.56296 10.6487 5.65116 10.4185 5.65116 10.1786C5.65116 9.93861 5.56296 9.70848 5.40595 9.53881C5.24894 9.36913 5.036 9.27381 4.81395 9.27381C4.59191 9.27381 4.37896 9.36913 4.22196 9.53881C4.06495 9.70848 3.97674 9.93861 3.97674 10.1786C3.97674 10.4185 4.06495 10.6487 4.22196 10.8183C4.37896 10.988 4.59191 11.0833 4.81395 11.0833ZM4.81395 14.7024C5.036 14.7024 5.24894 14.6071 5.40595 14.4374C5.56296 14.2677 5.65116 14.0376 5.65116 13.7976C5.65116 13.5577 5.56296 13.3275 5.40595 13.1579C5.24894 12.9882 5.036 12.8929 4.81395 12.8929C4.59191 12.8929 4.37896 12.9882 4.22196 13.1579C4.06495 13.3275 3.97674 13.5577 3.97674 13.7976C3.97674 14.0376 4.06495 14.2677 4.22196 14.4374C4.37896 14.6071 4.59191 14.7024 4.81395 14.7024Z" fill="white"/>
<path fill-rule="evenodd" clip-rule="evenodd" d="M4.81395 0C4.98048 0 5.1402 0.0714922 5.25795 0.198749C5.37571 0.326006 5.44186 0.498603 5.44186 0.678571V1.3689C5.99609 1.35714 6.60642 1.35714 7.27786 1.35714H10.7213C11.3936 1.35714 12.0039 1.35714 12.5581 1.3689V0.678571C12.5581 0.498603 12.6243 0.326006 12.742 0.198749C12.8598 0.0714922 13.0195 0 13.186 0C13.3526 0 13.5123 0.0714922 13.63 0.198749C13.7478 0.326006 13.814 0.498603 13.814 0.678571V1.42681C14.0316 1.4449 14.2376 1.46752 14.4327 1.49557C15.4139 1.63852 16.2084 1.9389 16.8354 2.61567C17.4617 3.29333 17.7396 4.15195 17.8719 5.21233C18 6.24376 18 7.56019 18 9.22314V11.134C18 12.797 18 14.1143 17.8719 15.1448C17.7396 16.2052 17.4617 17.0638 16.8354 17.7415C16.2084 18.4182 15.4139 18.7186 14.4327 18.8616C13.4782 19 12.2601 19 10.7213 19H7.2787C5.73991 19 4.52093 19 3.56735 18.8616C2.58614 18.7186 1.79163 18.4182 1.16456 17.7415C0.538326 17.0638 0.260372 16.2052 0.128093 15.1448C0 14.1134 0 12.797 0 11.134V9.22314C0 7.56019 0 6.24286 0.128093 5.21233C0.260372 4.15195 0.538326 3.29333 1.16456 2.61567C1.79163 1.9389 2.58614 1.63852 3.56735 1.49557C3.76242 1.46752 3.96921 1.4449 4.18605 1.42681V0.678571C4.18605 0.498603 4.2522 0.326006 4.36996 0.198749C4.48771 0.0714922 4.64742 0 4.81395 0ZM3.73395 2.84095C2.89256 2.9631 2.40698 3.1929 2.05284 3.57562C1.6987 3.95833 1.48605 4.4831 1.37302 5.39329C1.35377 5.5471 1.33786 5.70995 1.32447 5.88095H16.6755C16.6621 5.70905 16.6462 5.5471 16.627 5.39238C16.514 4.4831 16.3013 3.95833 15.9472 3.57562C15.593 3.1929 15.1074 2.9631 14.2652 2.84095C13.4054 2.7161 12.271 2.71429 10.6744 2.71429H7.32558C5.72902 2.71429 4.59544 2.7161 3.73395 2.84095ZM1.25581 9.27381C1.25581 8.50114 1.25581 7.8289 1.2667 7.2381H16.7333C16.7442 7.8289 16.7442 8.50114 16.7442 9.27381V11.0833C16.7442 12.8087 16.7425 14.0347 16.627 14.9648C16.514 15.874 16.3013 16.3988 15.9472 16.7815C15.593 17.1642 15.1074 17.394 14.2652 17.5162C13.4054 17.641 12.271 17.6429 10.6744 17.6429H7.32558C5.72902 17.6429 4.59544 17.641 3.73395 17.5162C2.89256 17.394 2.40698 17.1642 2.05284 16.7815C1.6987 16.3988 1.48605 15.874 1.37302 14.9639C1.25749 14.0347 1.25581 12.8087 1.25581 11.0833V9.27381Z" fill="white"/>
<path d="M4.81395 0L4.81395 -1L4.81395 0ZM5.44186 1.3689H4.44186V2.39035L5.46308 2.36868L5.44186 1.3689ZM12.5581 1.3689L12.5369 2.36868L13.5581 2.39035V1.3689H12.5581ZM13.186 0L13.186 -1L13.186 0ZM13.814 1.42681H12.814V2.34713L13.7311 2.42337L13.814 1.42681ZM14.4327 1.49557L14.5768 0.506017L14.575 0.505751L14.4327 1.49557ZM16.8354 2.61567L17.5699 1.93698L17.569 1.936L16.8354 2.61567ZM17.8719 5.21233L18.8643 5.08909L18.8642 5.08855L17.8719 5.21233ZM17.8719 15.1448L18.8642 15.2686L18.8643 15.2682L17.8719 15.1448ZM16.8354 17.7415L17.569 18.4211L17.5699 18.4202L16.8354 17.7415ZM14.4327 18.8616L14.5762 19.8512L14.5768 19.8511L14.4327 18.8616ZM3.56735 18.8616L3.42318 19.8511L3.42369 19.8512L3.56735 18.8616ZM1.16456 17.7415L0.430129 18.4202L0.431034 18.4211L1.16456 17.7415ZM0.128093 15.1448L-0.864284 15.2681L-0.864216 15.2686L0.128093 15.1448ZM0.128093 5.21233L-0.864216 5.08855L-0.86427 5.08898L0.128093 5.21233ZM1.16456 2.61567L0.431034 1.936L0.43013 1.93698L1.16456 2.61567ZM3.56735 1.49557L3.42503 0.505749L3.42318 0.506018L3.56735 1.49557ZM4.18605 1.42681L4.26921 2.42335L5.18605 2.34683V1.42681H4.18605ZM4.18605 0.678571L5.18605 0.678571L4.18605 0.678571ZM3.73395 2.84095L3.59052 1.85129L3.59029 1.85133L3.73395 2.84095ZM1.37302 5.39329L2.36528 5.51751L2.3654 5.51651L1.37302 5.39329ZM1.32447 5.88095L0.327519 5.80286L0.243066 6.88095H1.32447V5.88095ZM16.6755 5.88095V6.88095H17.7565L17.6725 5.80326L16.6755 5.88095ZM16.627 5.39238L15.6346 5.51573L15.6346 5.51589L16.627 5.39238ZM14.2652 2.84095L14.1215 3.83057L14.1217 3.8306L14.2652 2.84095ZM1.2667 7.2381V6.2381H0.28495L0.266867 7.21968L1.2667 7.2381ZM16.7333 7.2381L17.7331 7.21968L17.715 6.2381H16.7333V7.2381ZM16.627 14.9648L17.6193 15.0881L17.6193 15.088L16.627 14.9648ZM14.2652 17.5162L14.1217 16.5265L14.1215 16.5266L14.2652 17.5162ZM3.73395 17.5162L3.59029 18.5058L3.59052 18.5059L3.73395 17.5162ZM1.37302 14.9639L2.3654 14.8406L2.36538 14.8405L1.37302 14.9639ZM13.186 12.0833C13.6994 12.0833 14.1745 11.8622 14.512 11.4975L13.0441 10.1392C13.0675 10.1138 13.1167 10.0833 13.186 10.0833V12.0833ZM14.512 11.4975C14.8471 11.1354 15.0233 10.6598 15.0233 10.1786H13.0233C13.0233 10.1764 13.0236 10.1726 13.0258 10.1669C13.0279 10.1613 13.033 10.1512 13.0441 10.1392L14.512 11.4975ZM15.0233 10.1786C15.0233 9.69736 14.8471 9.22174 14.512 8.85963L13.0441 10.218C13.033 10.206 13.0279 10.1959 13.0258 10.1902C13.0236 10.1846 13.0233 10.1808 13.0233 10.1786H15.0233ZM14.512 8.85963C14.1745 8.49492 13.6995 8.27381 13.186 8.27381V10.2738C13.1167 10.2738 13.0675 10.2433 13.0441 10.218L14.512 8.85963ZM13.186 8.27381C12.6726 8.27381 12.1976 8.49492 11.8601 8.85963L13.328 10.218C13.3046 10.2433 13.2554 10.2738 13.186 10.2738V8.27381ZM11.8601 8.85963C11.525 9.22174 11.3488 9.69736 11.3488 10.1786H13.3488C13.3488 10.1808 13.3485 10.1846 13.3463 10.1902C13.3442 10.1959 13.3391 10.206 13.328 10.218L11.8601 8.85963ZM11.3488 10.1786C11.3488 10.6598 11.525 11.1354 11.8601 11.4975L13.328 10.1392C13.3391 10.1512 13.3442 10.1613 13.3463 10.1669C13.3485 10.1726 13.3488 10.1764 13.3488 10.1786H11.3488ZM11.8601 11.4975C12.1976 11.8622 12.6726 12.0833 13.186 12.0833V10.0833C13.2554 10.0833 13.3046 10.1138 13.328 10.1392L11.8601 11.4975ZM13.186 15.7024C13.6994 15.7024 14.1745 15.4813 14.512 15.1166L13.0441 13.7582C13.0675 13.7328 13.1167 13.7024 13.186 13.7024V15.7024ZM14.512 15.1166C14.8471 14.7545 15.0233 14.2788 15.0233 13.7976H13.0233C13.0233 13.7954 13.0236 13.7916 13.0258 13.786C13.0279 13.7803 13.033 13.7702 13.0441 13.7582L14.512 15.1166ZM15.0233 13.7976C15.0233 13.3164 14.8471 12.8408 14.512 12.4787L13.0441 13.837C13.033 13.825 13.0279 13.8149 13.0258 13.8093C13.0236 13.8036 13.0233 13.7998 13.0233 13.7976H15.0233ZM14.512 12.4787C14.1745 12.114 13.6994 11.8929 13.186 11.8929V13.8929C13.1167 13.8929 13.0675 13.8624 13.0441 13.837L14.512 12.4787ZM13.186 11.8929C12.6726 11.8929 12.1976 12.114 11.8601 12.4787L13.328 13.837C13.3046 13.8624 13.2554 13.8929 13.186 13.8929V11.8929ZM11.8601 12.4787C11.525 12.8408 11.3488 13.3164 11.3488 13.7976H13.3488C13.3488 13.7998 13.3485 13.8036 13.3463 13.8093C13.3442 13.8149 13.3391 13.825 13.328 13.837L11.8601 12.4787ZM11.3488 13.7976C11.3488 14.2788 11.525 14.7545 11.8601 15.1166L13.328 13.7582C13.3391 13.7702 13.3442 13.7803 13.3463 13.786C13.3485 13.7916 13.3488 13.7954 13.3488 13.7976H11.3488ZM11.8601 15.1166C12.1976 15.4813 12.6726 15.7024 13.186 15.7024V13.7024C13.2554 13.7024 13.3046 13.7328 13.328 13.7582L11.8601 15.1166ZM8.83721 10.1786C8.83721 10.1764 8.83756 10.1726 8.83972 10.1669C8.84188 10.1613 8.84691 10.1512 8.85802 10.1392L10.326 11.4975C10.661 11.1354 10.8372 10.6598 10.8372 10.1786H8.83721ZM8.85802 10.1392C8.88149 10.1138 8.93068 10.0833 9 10.0833V12.0833C9.5134 12.0833 9.98849 11.8622 10.326 11.4975L8.85802 10.1392ZM9 10.0833C9.06932 10.0833 9.11851 10.1138 9.14198 10.1392L7.67403 11.4975C8.01151 11.8622 8.4866 12.0833 9 12.0833V10.0833ZM9.14198 10.1392C9.15309 10.1512 9.15812 10.1613 9.16028 10.1669C9.16244 10.1726 9.16279 10.1763 9.16279 10.1786H7.16279C7.16279 10.6598 7.33896 11.1354 7.67403 11.4975L9.14198 10.1392ZM9.16279 10.1786C9.16279 10.1808 9.16244 10.1846 9.16028 10.1902C9.15812 10.1959 9.15309 10.206 9.14198 10.218L7.67403 8.85963C7.33896 9.22174 7.16279 9.69736 7.16279 10.1786H9.16279ZM9.14198 10.218C9.11851 10.2433 9.06932 10.2738 9 10.2738V8.27381C8.4866 8.27381 8.01151 8.49492 7.67403 8.85963L9.14198 10.218ZM9 10.2738C8.93068 10.2738 8.88149 10.2433 8.85802 10.218L10.326 8.85963C9.98849 8.49492 9.5134 8.27381 9 8.27381V10.2738ZM8.85802 10.218C8.84691 10.206 8.84188 10.1959 8.83972 10.1902C8.83756 10.1846 8.83721 10.1808 8.83721 10.1786H10.8372C10.8372 9.69736 10.661 9.22174 10.326 8.85963L8.85802 10.218ZM8.83721 13.7976C8.83721 13.7954 8.83756 13.7916 8.83972 13.786C8.84188 13.7803 8.84691 13.7702 8.85802 13.7582L10.326 15.1166C10.661 14.7545 10.8372 14.2788 10.8372 13.7976H8.83721ZM8.85802 13.7582C8.88149 13.7328 8.93068 13.7024 9 13.7024V15.7024C9.5134 15.7024 9.98849 15.4813 10.326 15.1166L8.85802 13.7582ZM9 13.7024C9.06932 13.7024 9.11851 13.7328 9.14198 13.7582L7.67403 15.1166C8.01151 15.4813 8.4866 15.7024 9 15.7024V13.7024ZM9.14198 13.7582C9.15309 13.7702 9.15812 13.7803 9.16028 13.786C9.16244 13.7916 9.16279 13.7954 9.16279 13.7976H7.16279C7.16279 14.2788 7.33896 14.7545 7.67403 15.1166L9.14198 13.7582ZM9.16279 13.7976C9.16279 13.7998 9.16244 13.8036 9.16028 13.8093C9.15812 13.8149 9.15309 13.825 9.14198 13.837L7.67403 12.4787C7.33896 12.8408 7.16279 13.3164 7.16279 13.7976H9.16279ZM9.14198 13.837C9.11851 13.8624 9.06932 13.8929 9 13.8929V11.8929C8.4866 11.8929 8.01151 12.114 7.67403 12.4787L9.14198 13.837ZM9 13.8929C8.93068 13.8929 8.88149 13.8624 8.85802 13.837L10.326 12.4787C9.98849 12.114 9.5134 11.8929 9 11.8929V13.8929ZM8.85802 13.837C8.84691 13.825 8.84188 13.8149 8.83972 13.8093C8.83756 13.8036 8.83721 13.7998 8.83721 13.7976H10.8372C10.8372 13.3164 10.661 12.8408 10.326 12.4787L8.85802 13.837ZM4.81395 12.0833C5.32735 12.0833 5.80244 11.8622 6.13993 11.4975L4.67197 10.1392C4.69544 10.1138 4.74464 10.0833 4.81395 10.0833V12.0833ZM6.13993 11.4975C6.47499 11.1354 6.65116 10.6598 6.65116 10.1786H4.65116C4.65116 10.1763 4.65151 10.1726 4.65367 10.1669C4.65584 10.1613 4.66087 10.1512 4.67197 10.1392L6.13993 11.4975ZM6.65116 10.1786C6.65116 9.69736 6.47499 9.22174 6.13993 8.85963L4.67197 10.218C4.66087 10.206 4.65584 10.1959 4.65367 10.1902C4.65151 10.1846 4.65116 10.1808 4.65116 10.1786H6.65116ZM6.13993 8.85963C5.80244 8.49492 5.32736 8.27381 4.81395 8.27381V10.2738C4.74463 10.2738 4.69544 10.2433 4.67197 10.218L6.13993 8.85963ZM4.81395 8.27381C4.30055 8.27381 3.82546 8.49492 3.48798 8.85963L4.95593 10.218C4.93247 10.2433 4.88327 10.2738 4.81395 10.2738V8.27381ZM3.48798 8.85963C3.15291 9.22174 2.97674 9.69736 2.97674 10.1786H4.97674C4.97674 10.1808 4.9764 10.1846 4.97423 10.1902C4.97207 10.1959 4.96704 10.206 4.95593 10.218L3.48798 8.85963ZM2.97674 10.1786C2.97674 10.6598 3.15291 11.1354 3.48798 11.4975L4.95593 10.1392C4.96704 10.1512 4.97207 10.1613 4.97423 10.1669C4.9764 10.1726 4.97674 10.1763 4.97674 10.1786H2.97674ZM3.48798 11.4975C3.82547 11.8622 4.30055 12.0833 4.81395 12.0833V10.0833C4.88327 10.0833 4.93246 10.1138 4.95593 10.1392L3.48798 11.4975ZM4.81395 15.7024C5.32735 15.7024 5.80244 15.4813 6.13993 15.1166L4.67197 13.7582C4.69544 13.7328 4.74464 13.7024 4.81395 13.7024V15.7024ZM6.13993 15.1166C6.47499 14.7545 6.65116 14.2788 6.65116 13.7976H4.65116C4.65116 13.7954 4.65151 13.7916 4.65367 13.786C4.65584 13.7803 4.66087 13.7702 4.67197 13.7582L6.13993 15.1166ZM6.65116 13.7976C6.65116 13.3164 6.47499 12.8408 6.13993 12.4787L4.67197 13.837C4.66087 13.825 4.65584 13.8149 4.65367 13.8093C4.65151 13.8036 4.65116 13.7998 4.65116 13.7976H6.65116ZM6.13993 12.4787C5.80244 12.114 5.32735 11.8929 4.81395 11.8929V13.8929C4.74464 13.8929 4.69545 13.8624 4.67197 13.837L6.13993 12.4787ZM4.81395 11.8929C4.30055 11.8929 3.82547 12.114 3.48798 12.4787L4.95593 13.837C4.93246 13.8624 4.88327 13.8929 4.81395 13.8929V11.8929ZM3.48798 12.4787C3.15291 12.8408 2.97674 13.3164 2.97674 13.7976H4.97674C4.97674 13.7998 4.9764 13.8036 4.97423 13.8093C4.97207 13.8149 4.96704 13.825 4.95593 13.837L3.48798 12.4787ZM2.97674 13.7976C2.97674 14.2788 3.15291 14.7545 3.48798 15.1166L4.95593 13.7582C4.96704 13.7702 4.97207 13.7803 4.97423 13.786C4.9764 13.7916 4.97674 13.7954 4.97674 13.7976H2.97674ZM3.48798 15.1166C3.82547 15.4813 4.30055 15.7024 4.81395 15.7024V13.7024C4.88327 13.7024 4.93246 13.7328 4.95593 13.7582L3.48798 15.1166ZM4.81395 1C4.68912 1 4.5867 0.945707 4.52397 0.877924L5.99193 -0.480426C5.69369 -0.802722 5.27184 -1 4.81395 -1V1ZM4.52397 0.877924C4.46367 0.812753 4.44186 0.739858 4.44186 0.678571H6.44186C6.44186 0.257349 6.28774 -0.160741 5.99193 -0.480426L4.52397 0.877924ZM4.44186 0.678571V1.3689H6.44186V0.678571H4.44186ZM5.46308 2.36868C6.00462 2.35719 6.60364 2.35714 7.27786 2.35714V0.357143C6.6092 0.357143 5.98757 0.357099 5.42064 0.36913L5.46308 2.36868ZM7.27786 2.35714H10.7213V0.357143H7.27786V2.35714ZM10.7213 2.35714C11.3964 2.35714 11.9954 2.35719 12.5369 2.36868L12.5794 0.36913C12.0124 0.357099 11.3908 0.357143 10.7213 0.357143V2.35714ZM13.5581 1.3689V0.678571H11.5581V1.3689H13.5581ZM13.5581 0.678571C13.5581 0.739858 13.5363 0.812753 13.476 0.877924L12.0081 -0.480426C11.7123 -0.160741 11.5581 0.257349 11.5581 0.678571H13.5581ZM13.476 0.877924C13.4133 0.945708 13.3109 1 13.186 1L13.186 -1C12.7282 -1 12.3063 -0.802724 12.0081 -0.480426L13.476 0.877924ZM13.186 1C13.0612 1 12.9588 0.945707 12.8961 0.877924L14.364 -0.480426C14.0658 -0.802722 13.6439 -1 13.186 -1V1ZM12.8961 0.877924C12.8358 0.812753 12.814 0.739858 12.814 0.678571H14.814C14.814 0.257349 14.6598 -0.160741 14.364 -0.480426L12.8961 0.877924ZM12.814 0.678571V1.42681H14.814V0.678571H12.814ZM13.7311 2.42337C13.9324 2.4401 14.1182 2.46064 14.2903 2.48539L14.575 0.505751C14.357 0.474406 14.1309 0.449706 13.8968 0.430247L13.7311 2.42337ZM14.2885 2.48512C15.1445 2.60984 15.6876 2.84817 16.1019 3.29533L17.569 1.936C16.7292 1.02964 15.6832 0.667207 14.5768 0.506018L14.2885 2.48512ZM16.101 3.29435C16.525 3.75321 16.7594 4.37272 16.8796 5.33612L18.8642 5.08855C18.7198 3.93119 18.3983 2.83345 17.5699 1.93698L16.101 3.29435ZM16.8795 5.33558C16.9982 6.29136 17 7.53561 17 9.22314H19C19 7.58477 19.0018 6.19616 18.8643 5.08909L16.8795 5.33558ZM17 9.22314V11.134H19V9.22314H17ZM17 11.134C17 12.8216 16.9982 14.0667 16.8795 15.0215L18.8643 15.2682C19.0018 14.1619 19 12.7723 19 11.134H17ZM16.8796 15.021C16.7594 15.9844 16.525 16.6039 16.101 17.0628L17.5699 18.4202C18.3983 17.5237 18.7198 16.426 18.8642 15.2686L16.8796 15.021ZM16.1019 17.0618C15.6876 17.509 15.1445 17.7473 14.2885 17.872L14.5768 19.8511C15.6832 19.6899 16.7292 19.3275 17.569 18.4211L16.1019 17.0618ZM14.2891 17.8719C13.4226 17.9976 12.2887 18 10.7213 18V20C12.2315 20 13.5338 20.0024 14.5762 19.8512L14.2891 17.8719ZM10.7213 18H7.2787V20H10.7213V18ZM7.2787 18C5.71124 18 4.57655 17.9976 3.71101 17.8719L3.42369 19.8512C4.46531 20.0024 5.76857 20 7.2787 20V18ZM3.71152 17.872C2.85548 17.7473 2.31241 17.509 1.89808 17.0618L0.431034 18.4211C1.27084 19.3275 2.3168 19.6899 3.42318 19.8511L3.71152 17.872ZM1.89899 17.0628C1.47495 16.6039 1.24058 15.9844 1.1204 15.021L-0.864216 15.2686C-0.719839 16.426 -0.398303 17.5237 0.43013 18.4202L1.89899 17.0628ZM1.12047 15.0216C1.00177 14.0658 1 12.8215 1 11.134H-1C-1 12.7724 -1.00177 14.161 -0.864283 15.2681L1.12047 15.0216ZM1 11.134V9.22314H-1V11.134H1ZM1 9.22314C1 7.53554 1.00178 6.29049 1.12046 5.33568L-0.86427 5.08898C-1.00178 6.19523 -1 7.58485 -1 9.22314H1ZM1.1204 5.33612C1.24058 4.37272 1.47495 3.75321 1.89899 3.29435L0.43013 1.93698C-0.398303 2.83345 -0.719839 3.93119 -0.864216 5.08855L1.1204 5.33612ZM1.89808 3.29533C2.31241 2.84817 2.85548 2.60984 3.71152 2.48512L3.42318 0.506018C2.3168 0.667207 1.27084 1.02964 0.431034 1.936L1.89808 3.29533ZM3.70967 2.48539C3.88159 2.46067 4.06828 2.44011 4.26921 2.42335L4.10288 0.430273C3.87013 0.449697 3.64325 0.474375 3.42503 0.505751L3.70967 2.48539ZM5.18605 1.42681V0.678571H3.18605V1.42681H5.18605ZM5.18605 0.678571C5.18605 0.739858 5.16424 0.812753 5.10393 0.877924L3.63598 -0.480426C3.34016 -0.160741 3.18605 0.257349 3.18605 0.678571L5.18605 0.678571ZM5.10393 0.877924C5.04121 0.945707 4.93878 1 4.81395 1L4.81395 -1C4.35606 -1 3.93421 -0.802722 3.63598 -0.480426L5.10393 0.877924ZM3.59029 1.85133C2.62225 1.99185 1.88538 2.28421 1.31886 2.89644L2.78681 4.25479C2.92857 4.1016 3.16286 3.93434 3.87761 3.83058L3.59029 1.85133ZM1.31886 2.89644C0.762407 3.4978 0.505861 4.26167 0.380645 5.27006L2.3654 5.51651C2.46623 4.70452 2.63499 4.41887 2.78681 4.25479L1.31886 2.89644ZM0.380769 5.26906C0.359189 5.44144 0.341837 5.62008 0.327519 5.80286L2.32141 5.95905C2.33388 5.79983 2.34835 5.65275 2.36528 5.51751L0.380769 5.26906ZM1.32447 6.88095H16.6755V4.88095H1.32447V6.88095ZM17.6725 5.80326C17.6581 5.61886 17.6408 5.44138 17.6193 5.26887L15.6346 5.51589C15.6517 5.65281 15.6661 5.79923 15.6786 5.95864L17.6725 5.80326ZM17.6193 5.26903C17.4941 4.26148 17.2375 3.49771 16.6811 2.89644L15.2132 4.25479C15.3651 4.41896 15.5338 4.70471 15.6346 5.51573L17.6193 5.26903ZM16.6811 2.89644C16.1145 2.28411 15.3775 1.9918 14.4087 1.85131L14.1217 3.8306C14.8373 3.93439 15.0715 4.1017 15.2132 4.25479L16.6811 2.89644ZM14.4089 1.85133C13.4606 1.71362 12.2404 1.71429 10.6744 1.71429V3.71429C12.3016 3.71429 13.3502 3.71857 14.1215 3.83057L14.4089 1.85133ZM10.6744 1.71429H7.32558V3.71429H10.6744V1.71429ZM7.32558 1.71429C5.75946 1.71429 4.54034 1.71363 3.59052 1.85129L3.87739 3.83061C4.65055 3.71856 5.69859 3.71429 7.32558 3.71429V1.71429ZM2.25581 9.27381C2.25581 8.49841 2.25585 7.83621 2.26653 7.25651L0.266867 7.21968C0.255779 7.8216 0.255814 8.50387 0.255814 9.27381H2.25581ZM1.2667 8.2381H16.7333V6.2381H1.2667V8.2381ZM15.7335 7.25651C15.7441 7.83622 15.7442 8.49841 15.7442 9.27381H17.7442C17.7442 8.50387 17.7442 7.82159 17.7331 7.21968L15.7335 7.25651ZM15.7442 9.27381V11.0833H17.7442V9.27381H15.7442ZM15.7442 11.0833C15.7442 12.835 15.7407 13.9874 15.6346 14.8415L17.6193 15.088C17.7443 14.0819 17.7442 12.7825 17.7442 11.0833H15.7442ZM15.6346 14.8414C15.5338 15.6524 15.3651 15.9382 15.2132 16.1023L16.6811 17.4607C17.2375 16.8594 17.4941 16.0957 17.6193 15.0881L15.6346 14.8414ZM15.2132 16.1023C15.0715 16.2554 14.8373 16.4228 14.1217 16.5265L14.4087 18.5058C15.3775 18.3653 16.1145 18.073 16.6811 17.4607L15.2132 16.1023ZM14.1215 16.5266C13.3502 16.6386 12.3016 16.6429 10.6744 16.6429V18.6429C12.2404 18.6429 13.4606 18.6435 14.4089 18.5058L14.1215 16.5266ZM10.6744 16.6429H7.32558V18.6429H10.6744V16.6429ZM7.32558 16.6429C5.69858 16.6429 4.65055 16.6386 3.87739 16.5265L3.59052 18.5059C4.54034 18.6435 5.75946 18.6429 7.32558 18.6429V16.6429ZM3.87761 16.5266C3.16286 16.4228 2.92857 16.2555 2.78681 16.1023L1.31886 17.4607C1.88538 18.0729 2.62225 18.3653 3.59029 18.5058L3.87761 16.5266ZM2.78681 16.1023C2.63499 15.9383 2.46623 15.6526 2.3654 14.8406L0.380645 15.0871C0.505861 16.0955 0.762406 16.8593 1.31886 17.4607L2.78681 16.1023ZM2.36538 14.8405C2.25931 13.9874 2.25581 12.835 2.25581 11.0833H0.255814C0.255814 12.7824 0.255664 14.0819 0.380665 15.0872L2.36538 14.8405ZM2.25581 11.0833V9.27381H0.255814V11.0833H2.25581Z" fill="#E5097F" mask="url(#path-1-inside-1_1_692)"/>
</svg>
