<svg width="20" height="19" viewBox="0 0 20 19" fill="none" xmlns="http://www.w3.org/2000/svg">
<mask id="path-1-inside-1_1_694" fill="white">
<path d="M10 19C8.12108 19 6.28435 18.4428 4.72209 17.399C3.15982 16.3551 1.94218 14.8714 1.22315 13.1355C0.504116 11.3996 0.315985 9.48946 0.682544 7.64665C1.0491 5.80383 1.95389 4.11109 3.28249 2.78249C4.61109 1.45389 6.30383 0.549104 8.14665 0.182544C9.98946 -0.184015 11.8996 0.00411622 13.6355 0.723149C15.3714 1.44218 16.8551 2.65982 17.899 4.22209C18.9428 5.78435 19.5 7.62108 19.5 9.5C19.5 12.0196 18.4991 14.4359 16.7175 16.2175C14.9359 17.9991 12.5196 19 10 19ZM10 1.35715C8.3895 1.35715 6.81516 1.83472 5.47607 2.72947C4.13699 3.62421 3.0933 4.89595 2.47698 6.38387C1.86067 7.87178 1.69942 9.50904 2.01361 11.0886C2.3278 12.6682 3.10334 14.1191 4.24213 15.2579C5.38093 16.3967 6.83185 17.1722 8.41141 17.4864C9.99097 17.8006 11.6282 17.6393 13.1161 17.023C14.6041 16.4067 15.8758 15.363 16.7705 14.0239C17.6653 12.6848 18.1429 11.1105 18.1429 9.5C18.1429 7.34038 17.285 5.26922 15.7579 3.74213C14.2308 2.21505 12.1596 1.35715 10 1.35715Z"/>
<path d="M13.5933 13.0928C13.3289 13.3571 12.9004 13.3571 12.636 13.0928L9.32143 9.77821V4.07143C9.32143 3.69666 9.62523 3.39286 10 3.39286C10.3748 3.39286 10.6786 3.69666 10.6786 4.07143V9.215L13.5938 12.136C13.8576 12.4004 13.8574 12.8286 13.5933 13.0928Z"/>
</mask>
<path d="M10 19C8.12108 19 6.28435 18.4428 4.72209 17.399C3.15982 16.3551 1.94218 14.8714 1.22315 13.1355C0.504116 11.3996 0.315985 9.48946 0.682544 7.64665C1.0491 5.80383 1.95389 4.11109 3.28249 2.78249C4.61109 1.45389 6.30383 0.549104 8.14665 0.182544C9.98946 -0.184015 11.8996 0.00411622 13.6355 0.723149C15.3714 1.44218 16.8551 2.65982 17.899 4.22209C18.9428 5.78435 19.5 7.62108 19.5 9.5C19.5 12.0196 18.4991 14.4359 16.7175 16.2175C14.9359 17.9991 12.5196 19 10 19ZM10 1.35715C8.3895 1.35715 6.81516 1.83472 5.47607 2.72947C4.13699 3.62421 3.0933 4.89595 2.47698 6.38387C1.86067 7.87178 1.69942 9.50904 2.01361 11.0886C2.3278 12.6682 3.10334 14.1191 4.24213 15.2579C5.38093 16.3967 6.83185 17.1722 8.41141 17.4864C9.99097 17.8006 11.6282 17.6393 13.1161 17.023C14.6041 16.4067 15.8758 15.363 16.7705 14.0239C17.6653 12.6848 18.1429 11.1105 18.1429 9.5C18.1429 7.34038 17.285 5.26922 15.7579 3.74213C14.2308 2.21505 12.1596 1.35715 10 1.35715Z" fill="white"/>
<path d="M13.5933 13.0928C13.3289 13.3571 12.9004 13.3571 12.636 13.0928L9.32143 9.77821V4.07143C9.32143 3.69666 9.62523 3.39286 10 3.39286C10.3748 3.39286 10.6786 3.69666 10.6786 4.07143V9.215L13.5938 12.136C13.8576 12.4004 13.8574 12.8286 13.5933 13.0928Z" fill="white"/>
<path d="M10 19V18V19ZM18.1429 9.5H19.1429H18.1429ZM9.32143 9.77821H8.32143V10.1924L8.61432 10.4853L9.32143 9.77821ZM10.6786 9.215H9.67857V9.62863L9.97076 9.9214L10.6786 9.215ZM13.5938 12.136L14.3016 11.4296L13.5938 12.136ZM10 18C8.31886 18 6.67547 17.5015 5.27766 16.5675L4.16652 18.2304C5.89323 19.3842 7.9233 20 10 20V18ZM5.27766 16.5675C3.87984 15.6335 2.79037 14.306 2.14703 12.7528L0.299269 13.5182C1.09399 15.4368 2.4398 17.0767 4.16652 18.2304L5.27766 16.5675ZM2.14703 12.7528C1.50368 11.1996 1.33536 9.49057 1.66333 7.84174L-0.298241 7.45156C-0.703386 9.48836 -0.495451 11.5996 0.299269 13.5182L2.14703 12.7528ZM1.66333 7.84174C1.9913 6.1929 2.80085 4.67834 3.9896 3.4896L2.57538 2.07538C1.10693 3.54383 0.106903 5.41476 -0.298241 7.45156L1.66333 7.84174ZM3.9896 3.4896C5.17834 2.30085 6.6929 1.4913 8.34174 1.16333L7.95156 -0.798241C5.91476 -0.393097 4.04383 0.606931 2.57538 2.07538L3.9896 3.4896ZM8.34174 1.16333C9.99057 0.835355 11.6996 1.00368 13.2528 1.64703L14.0182 -0.200731C12.0996 -0.995451 9.98836 -1.20339 7.95156 -0.798241L8.34174 1.16333ZM13.2528 1.64703C14.806 2.29037 16.1335 3.37984 17.0675 4.77766L18.7304 3.66652C17.5767 1.9398 15.9368 0.593989 14.0182 -0.200731L13.2528 1.64703ZM17.0675 4.77766C18.0015 6.17547 18.5 7.81886 18.5 9.5H20.5C20.5 7.4233 19.8842 5.39323 18.7304 3.66652L17.0675 4.77766ZM18.5 9.5C18.5 11.7543 17.6045 13.9163 16.0104 15.5104L17.4246 16.9246C19.3938 14.9555 20.5 12.2848 20.5 9.5H18.5ZM16.0104 15.5104C14.4163 17.1045 12.2543 18 10 18V20C12.7848 20 15.4555 18.8938 17.4246 16.9246L16.0104 15.5104ZM10 0.357147C8.19172 0.357147 6.42404 0.893366 4.9205 1.898L6.03164 3.56094C7.20628 2.77607 8.58728 2.35715 10 2.35715V0.357147ZM4.9205 1.898C3.41697 2.90263 2.24511 4.33055 1.55311 6.00118L3.40086 6.76655C3.94149 5.46136 4.85701 4.3458 6.03164 3.56094L4.9205 1.898ZM1.55311 6.00118C0.861104 7.67182 0.680045 9.51014 1.03282 11.2837L2.9944 10.8935C2.71879 9.50793 2.86024 8.07174 3.40086 6.76655L1.55311 6.00118ZM1.03282 11.2837C1.3856 13.0572 2.25638 14.6863 3.53503 15.965L4.94924 14.5508C3.95029 13.5518 3.27 12.2791 2.9944 10.8935L1.03282 11.2837ZM3.53503 15.965C4.81368 17.2436 6.44278 18.1144 8.21632 18.4672L8.6065 16.5056C7.22092 16.23 5.94819 15.5497 4.94924 14.5508L3.53503 15.965ZM8.21632 18.4672C9.98986 18.82 11.8282 18.6389 13.4988 17.9469L12.7335 16.0991C11.4283 16.6398 9.99208 16.7812 8.6065 16.5056L8.21632 18.4672ZM13.4988 17.9469C15.1695 17.2549 16.5974 16.083 17.602 14.5795L15.9391 13.4684C15.1542 14.643 14.0386 15.5585 12.7335 16.0991L13.4988 17.9469ZM17.602 14.5795C18.6066 13.076 19.1429 11.3083 19.1429 9.5H17.1429C17.1429 10.9127 16.7239 12.2937 15.9391 13.4684L17.602 14.5795ZM19.1429 9.5C19.1429 7.07517 18.1796 4.74965 16.465 3.03503L15.0508 4.44924C16.3903 5.78879 17.1429 7.6056 17.1429 9.5H19.1429ZM16.465 3.03503C14.7504 1.32041 12.4248 0.357147 10 0.357147V2.35715C11.8944 2.35715 13.7112 3.1097 15.0508 4.44924L16.465 3.03503ZM13.3431 12.3857L10.0285 9.07111L8.61432 10.4853L11.9289 13.7999L13.3431 12.3857ZM10.3214 9.77821V4.07143H8.32143V9.77821H10.3214ZM9.67857 4.07143V9.215H11.6786V4.07143H9.67857ZM9.97076 9.9214L12.8859 12.8424L14.3016 11.4296L11.3864 8.5086L9.97076 9.9214ZM10 4.39286C9.82248 4.39286 9.67857 4.24895 9.67857 4.07143H11.6786C11.6786 3.14438 10.927 2.39286 10 2.39286V4.39286ZM10.3214 4.07143C10.3214 4.24895 10.1775 4.39286 10 4.39286V2.39286C9.07295 2.39286 8.32143 3.14438 8.32143 4.07143H10.3214ZM12.8859 12.8424C12.76 12.7162 12.7601 12.5118 12.8862 12.3857L14.3004 13.7999C14.9548 13.1455 14.9553 12.0847 14.3016 11.4296L12.8859 12.8424ZM11.9289 13.7999C12.5838 14.4548 13.6455 14.4548 14.3004 13.7999L12.8862 12.3857C13.0123 12.2595 13.2169 12.2595 13.3431 12.3857L11.9289 13.7999Z" fill="#E5097F" mask="url(#path-1-inside-1_1_694)"/>
</svg>
