<svg width="53" height="53" viewBox="0 0 53 53" fill="none" xmlns="http://www.w3.org/2000/svg">
<path d="M26.6245 9.63541V9.63541C26.6245 7.71967 25.0715 6.16666 23.1558 6.16666H19.8174C18.8595 6.16666 18.083 5.39016 18.083 4.43229V4.43229C18.083 3.47442 18.8595 2.69792 19.8174 2.69792H27.8091C29.2991 2.69792 30.507 1.49002 30.507 0V0M46.5241 52.8021V48.571C46.5241 47.9277 46.0026 47.4062 45.3594 47.4062V47.4062M34.0013 52.8021V48.571C34.0013 47.9277 34.5228 47.4062 35.166 47.4062V47.4062M45.3594 47.4062L45.7494 44.7133C45.7696 44.574 45.8049 44.4373 45.8546 44.3056L47.9841 38.6686C48.0669 38.4494 48.1093 38.217 48.1093 37.9826V29.6771M45.3594 47.4062H35.166M45.3594 29.2917V29.2917C45.3594 28.4402 44.6691 27.75 43.8177 27.75H43.7128C42.8034 27.75 42.0662 28.4872 42.0662 29.3966V29.6771M45.3594 29.2917V29.6771V32.375M45.3594 29.2917C45.3594 29.2917 45.9013 28.4255 46.6778 28.4255C47.0451 28.4255 47.3851 28.5734 47.6416 28.7294C47.9645 28.9259 48.1093 29.2991 48.1093 29.6771V29.6771M42.0662 32.375V29.6771M42.0662 29.6771C42.0662 28.7135 41.4702 27.75 40.5047 27.75C39.5392 27.75 39.0982 28.1354 38.7099 28.7016M38.7099 32.375C38.7099 31.6041 38.7099 30.4479 38.7099 29.6771C38.7099 29.2917 38.7099 28.9062 38.7099 28.7016M38.7099 28.7016V24.8969C38.7099 23.9183 37.9166 23.125 36.938 23.125V23.125C35.9594 23.125 35.166 23.9183 35.166 24.8969V29.6771M35.166 36.6146V33.5312M35.166 33.5312C34.9072 33.0173 34.1566 31.9896 33.2248 31.9896C32.293 31.9896 31.9306 32.6319 31.6718 33.1458M35.166 33.5312V29.6771M31.6718 33.1458C31.6718 34.6875 31.6718 38.0021 31.6718 38.9271M31.6718 33.1458V38.9271M31.6718 38.9271C31.6718 39.7544 33.432 42.802 34.7296 44.5393C35.0029 44.905 35.166 45.344 35.166 45.8005V47.4062M35.166 29.6771H22.2864M48.1093 29.6771H49.5313C50.6034 29.6771 51.4725 28.8079 51.4725 27.7358V11.5767C51.4725 10.5045 50.6034 9.63541 49.5313 9.63541H2.94125C1.86913 9.63541 1 10.5045 1 11.5767V27.7358C1 28.8079 1.86913 29.6771 2.94125 29.6771L5.69461 29.6771M6.89084 52.8021V48.5937C6.89084 47.9379 7.42642 47.4062 8.08707 47.4062M20.8908 52.8021V48.5937C20.8908 47.9379 20.3553 47.4062 19.6946 47.4062M8.08707 47.4062V44.9949C8.08707 44.8055 8.0519 44.6176 7.98331 44.4408L5.79838 38.8091C5.72979 38.6323 5.69461 38.4445 5.69461 38.255V29.6771M8.08707 47.4062H19.6946M9.19461 26.5937V25.9144C9.19461 24.9406 9.61932 23.6621 10.5948 23.4224C11.385 23.2283 11.7876 23.3858 12.1556 23.6508C12.5235 23.9158 12.777 24.4122 12.777 25.0521M9.19461 26.5937V26.9792V29.6771V32.7604M9.19461 26.5937C9.19461 26.5937 8.4921 25.9144 7.69461 25.9144C7.19461 25.9144 6.69461 26 6.19461 26.5C5.69461 27 5.69461 27.902 5.69461 28.9062V29.6771M12.777 25.0521C12.9169 24.3741 13.077 22.7753 14.63 22.7753C15.6197 22.7753 16.4235 23.7417 16.4235 24.6667M12.777 25.0521V29.6771V32.7604M19.6946 47.4062V45.6634C19.6946 45.2958 19.8297 44.9432 20.0503 44.6479C21.3321 42.9321 22.8846 39.772 22.8846 38.9271V31.4296C22.8846 30.7846 22.779 30.0936 22.2864 29.6771V29.6771M16.4235 24.6667C16.4235 24.6667 16.8633 23.9554 18.1323 24.133C18.9223 24.2436 19.6946 25.1394 19.6946 25.9314V29.6771M16.4235 24.6667V29.6771V32.7604M19.6946 29.6771V32.7604M19.6946 29.6771C20.0136 29.3687 20.9433 29.2917 21.3316 29.2917C21.7198 29.2917 22.0206 29.4522 22.2864 29.6771" stroke="white" stroke-width="1.5"/>
<mask id="path-2-inside-1_1_714" fill="white">
<rect x="21.9677" y="25.0525" width="8.54151" height="2.3125" rx="0.485313"/>
</mask>
<rect x="21.9677" y="25.0525" width="8.54151" height="2.3125" rx="0.485313" fill="white" stroke="white" stroke-width="2.3125" mask="url(#path-2-inside-1_1_714)"/>
<mask id="path-3-inside-2_1_714" fill="white">
<rect x="23.3237" y="18.1147" width="2.3295" height="2.3125" rx="0.485313"/>
</mask>
<rect x="23.3237" y="18.1147" width="2.3295" height="2.3125" rx="0.485313" fill="white" stroke="white" stroke-width="2.3125" mask="url(#path-3-inside-2_1_714)"/>
<mask id="path-4-inside-3_1_714" fill="white">
<rect x="23.1589" y="13.5813" width="2.3295" height="2.3125" rx="0.485313"/>
</mask>
<rect x="23.1589" y="13.5813" width="2.3295" height="2.3125" rx="0.485313" fill="white" stroke="white" stroke-width="2.3125" mask="url(#path-4-inside-3_1_714)"/>
<mask id="path-5-inside-4_1_714" fill="white">
<rect x="6.00537" y="18.1147" width="2.3295" height="2.3125" rx="0.485313"/>
</mask>
<rect x="6.00537" y="18.1147" width="2.3295" height="2.3125" rx="0.485313" fill="white" stroke="white" stroke-width="2.3125" mask="url(#path-5-inside-4_1_714)"/>
<mask id="path-6-inside-5_1_714" fill="white">
<rect x="7.84058" y="13.5813" width="2.3295" height="2.3125" rx="0.485313"/>
</mask>
<rect x="7.84058" y="13.5813" width="2.3295" height="2.3125" rx="0.485313" fill="white" stroke="white" stroke-width="2.3125" mask="url(#path-6-inside-5_1_714)"/>
<mask id="path-7-inside-6_1_714" fill="white">
<rect x="4.01099" y="13.5813" width="2.3295" height="2.3125" rx="0.485313"/>
</mask>
<rect x="4.01099" y="13.5813" width="2.3295" height="2.3125" rx="0.485313" fill="white" stroke="white" stroke-width="2.3125" mask="url(#path-7-inside-6_1_714)"/>
<mask id="path-8-inside-7_1_714" fill="white">
<rect x="40.6421" y="18.1147" width="2.3295" height="2.3125" rx="0.485313"/>
</mask>
<rect x="40.6421" y="18.1147" width="2.3295" height="2.3125" rx="0.485313" fill="white" stroke="white" stroke-width="2.3125" mask="url(#path-8-inside-7_1_714)"/>
<mask id="path-9-inside-8_1_714" fill="white">
<rect x="38.4773" y="13.5813" width="2.3295" height="2.3125" rx="0.485313"/>
</mask>
<rect x="38.4773" y="13.5813" width="2.3295" height="2.3125" rx="0.485313" fill="white" stroke="white" stroke-width="2.3125" mask="url(#path-9-inside-8_1_714)"/>
<mask id="path-10-inside-9_1_714" fill="white">
<rect x="27.6533" y="18.1147" width="2.3295" height="2.3125" rx="0.485313"/>
</mask>
<rect x="27.6533" y="18.1147" width="2.3295" height="2.3125" rx="0.485313" fill="white" stroke="white" stroke-width="2.3125" mask="url(#path-10-inside-9_1_714)"/>
<mask id="path-11-inside-10_1_714" fill="white">
<rect x="26.9885" y="13.5813" width="2.3295" height="2.3125" rx="0.485313"/>
</mask>
<rect x="26.9885" y="13.5813" width="2.3295" height="2.3125" rx="0.485313" fill="white" stroke="white" stroke-width="2.3125" mask="url(#path-11-inside-10_1_714)"/>
<mask id="path-12-inside-11_1_714" fill="white">
<rect x="10.335" y="18.1147" width="2.3295" height="2.3125" rx="0.485313"/>
</mask>
<rect x="10.335" y="18.1147" width="2.3295" height="2.3125" rx="0.485313" fill="white" stroke="white" stroke-width="2.3125" mask="url(#path-12-inside-11_1_714)"/>
<mask id="path-13-inside-12_1_714" fill="white">
<rect x="11.6702" y="13.5813" width="2.3295" height="2.3125" rx="0.485313"/>
</mask>
<rect x="11.6702" y="13.5813" width="2.3295" height="2.3125" rx="0.485313" fill="white" stroke="white" stroke-width="2.3125" mask="url(#path-13-inside-12_1_714)"/>
<mask id="path-14-inside-13_1_714" fill="white">
<rect x="44.9717" y="18.1147" width="2.3295" height="2.3125" rx="0.485313"/>
</mask>
<rect x="44.9717" y="18.1147" width="2.3295" height="2.3125" rx="0.485313" fill="white" stroke="white" stroke-width="2.3125" mask="url(#path-14-inside-13_1_714)"/>
<mask id="path-15-inside-14_1_714" fill="white">
<rect x="42.3069" y="13.5813" width="2.3295" height="2.3125" rx="0.485313"/>
</mask>
<rect x="42.3069" y="13.5813" width="2.3295" height="2.3125" rx="0.485313" fill="white" stroke="white" stroke-width="2.3125" mask="url(#path-15-inside-14_1_714)"/>
<mask id="path-16-inside-15_1_714" fill="white">
<rect x="31.9829" y="18.1147" width="2.3295" height="2.3125" rx="0.485313"/>
</mask>
<rect x="31.9829" y="18.1147" width="2.3295" height="2.3125" rx="0.485313" fill="white" stroke="white" stroke-width="2.3125" mask="url(#path-16-inside-15_1_714)"/>
<mask id="path-17-inside-16_1_714" fill="white">
<rect x="30.8181" y="13.5813" width="2.3295" height="2.3125" rx="0.485313"/>
</mask>
<rect x="30.8181" y="13.5813" width="2.3295" height="2.3125" rx="0.485313" fill="white" stroke="white" stroke-width="2.3125" mask="url(#path-17-inside-16_1_714)"/>
<mask id="path-18-inside-17_1_714" fill="white">
<rect x="14.6646" y="18.1147" width="2.3295" height="2.3125" rx="0.485313"/>
</mask>
<rect x="14.6646" y="18.1147" width="2.3295" height="2.3125" rx="0.485313" fill="white" stroke="white" stroke-width="2.3125" mask="url(#path-18-inside-17_1_714)"/>
<mask id="path-19-inside-18_1_714" fill="white">
<rect x="15.4998" y="13.5813" width="2.3295" height="2.3125" rx="0.485313"/>
</mask>
<rect x="15.4998" y="13.5813" width="2.3295" height="2.3125" rx="0.485313" fill="white" stroke="white" stroke-width="2.3125" mask="url(#path-19-inside-18_1_714)"/>
<mask id="path-20-inside-19_1_714" fill="white">
<rect x="46.1365" y="13.5813" width="2.3295" height="2.3125" rx="0.485313"/>
</mask>
<rect x="46.1365" y="13.5813" width="2.3295" height="2.3125" rx="0.485313" fill="white" stroke="white" stroke-width="2.3125" mask="url(#path-20-inside-19_1_714)"/>
<mask id="path-21-inside-20_1_714" fill="white">
<rect x="36.3125" y="18.1147" width="2.3295" height="2.3125" rx="0.485313"/>
</mask>
<rect x="36.3125" y="18.1147" width="2.3295" height="2.3125" rx="0.485313" fill="white" stroke="white" stroke-width="2.3125" mask="url(#path-21-inside-20_1_714)"/>
<mask id="path-22-inside-21_1_714" fill="white">
<rect x="34.6477" y="13.5813" width="2.3295" height="2.3125" rx="0.485313"/>
</mask>
<rect x="34.6477" y="13.5813" width="2.3295" height="2.3125" rx="0.485313" fill="white" stroke="white" stroke-width="2.3125" mask="url(#path-22-inside-21_1_714)"/>
<mask id="path-23-inside-22_1_714" fill="white">
<rect x="18.9941" y="18.1147" width="2.3295" height="2.3125" rx="0.485313"/>
</mask>
<rect x="18.9941" y="18.1147" width="2.3295" height="2.3125" rx="0.485313" fill="white" stroke="white" stroke-width="2.3125" mask="url(#path-23-inside-22_1_714)"/>
<mask id="path-24-inside-23_1_714" fill="white">
<rect x="19.3293" y="13.5813" width="2.3295" height="2.3125" rx="0.485313"/>
</mask>
<rect x="19.3293" y="13.5813" width="2.3295" height="2.3125" rx="0.485313" fill="white" stroke="white" stroke-width="2.3125" mask="url(#path-24-inside-23_1_714)"/>
</svg>
