<svg width="53" height="47" viewBox="0 0 53 47" fill="none" xmlns="http://www.w3.org/2000/svg">
<path d="M21.5382 30.8788H33.6087C34.1423 30.8788 34.6539 30.6697 35.0312 30.2975C35.4085 29.9253 35.6204 29.4205 35.6204 28.8941V22.9401C35.6204 22.4138 35.4085 21.909 35.0312 21.5368C34.6539 21.1646 34.1423 20.9555 33.6087 20.9555H31.597H23.55H21.5382C21.0047 20.9555 20.493 21.1646 20.1157 21.5368C19.7384 21.909 19.5265 22.4138 19.5265 22.9401V28.8941C19.5265 29.4205 19.7384 29.9253 20.1157 30.2975C20.493 30.6697 21.0047 30.8788 21.5382 30.8788Z" fill="white"/>
<path d="M33.6087 20.9555C34.1423 20.9555 34.6539 21.1646 35.0312 21.5368C35.4085 21.909 35.6204 22.4138 35.6204 22.9401V28.8941C35.6204 29.4205 35.4085 29.9253 35.0312 30.2975C34.6539 30.6697 34.1423 30.8788 33.6087 30.8788H21.5382C21.0047 30.8788 20.493 30.6697 20.1157 30.2975C19.7384 29.9253 19.5265 29.4205 19.5265 28.8941V22.9401C19.5265 22.4138 19.7384 21.909 20.1157 21.5368C20.493 21.1646 21.0047 20.9555 21.5382 20.9555M33.6087 20.9555H21.5382M33.6087 20.9555H31.597M21.5382 20.9555H23.55M31.597 20.9555V16.9862C31.597 15.9334 31.1731 14.9238 30.4185 14.1794C29.664 13.435 28.6406 13.0168 27.5735 13.0168C26.5064 13.0168 25.483 13.435 24.7284 14.1794C23.9739 14.9238 23.55 15.9334 23.55 16.9862V20.9555M31.597 20.9555H23.55" stroke="white" stroke-width="1.5" stroke-linecap="round" stroke-linejoin="round"/>
<path d="M52.1392 23.1302C52.1392 35.3516 40.839 45.2604 26.9029 45.2604C22.7772 45.2743 18.7006 44.3773 14.9718 42.6352L1.66666 45.2604L5.57828 34.9699C3.10232 31.5452 1.66666 27.4843 1.66666 23.1302C1.66666 10.9088 12.9669 1 26.9029 1C40.839 1 52.1392 10.9088 52.1392 23.1302Z" stroke="white" stroke-width="1.5" stroke-linecap="round" stroke-linejoin="round"/>
<path d="M27.8735 24.2949L27.8735 28.1774" stroke="#00036E" stroke-width="1.5" stroke-linecap="round"/>
</svg>
