<svg width="12" height="19" viewBox="0 0 12 19" fill="none" xmlns="http://www.w3.org/2000/svg">
<path d="M10.2341 5.70385L10.7681 6.29951L10.7924 6.27778L10.8148 6.25416L10.2341 5.70385ZM1.7659 5.70385L1.18524 6.25416L1.20763 6.27778L1.23186 6.29951L1.7659 5.70385ZM1.7659 13.2961L1.23186 12.7005L1.20763 12.7222L1.18524 12.7458L1.7659 13.2961ZM10.2341 13.2961L10.8148 12.7458L10.7924 12.7222L10.7681 12.7005L10.2341 13.2961ZM6.53404 10.0957L10.7681 6.29951L9.70006 5.1082L5.46596 8.90435L6.53404 10.0957ZM10.8148 6.25416C10.9289 6.13376 11.0142 6.05338 11.1271 5.94003C11.2277 5.83898 11.3495 5.71213 11.4565 5.55879C11.7044 5.20381 11.8 4.81575 11.8 4.32683H10.2C10.2 4.58235 10.1574 4.62462 10.1446 4.64294C10.1213 4.67626 10.0822 4.7218 9.99336 4.81104C9.91675 4.88798 9.78403 5.01576 9.65345 5.15355L10.8148 6.25416ZM11.8 4.32683V3.59482H10.2V4.32683H11.8ZM11.8 3.59482C11.8 2.61736 11.4255 1.83516 10.7544 1.32091C10.1156 0.831427 9.29662 0.65166 8.5 0.65166V2.25166C9.08409 2.25166 9.51511 2.38703 9.78117 2.59091C10.0149 2.77001 10.2 3.05939 10.2 3.59482H11.8ZM8.5 0.65166H3.5V2.25166H8.5V0.65166ZM3.5 0.65166C2.70338 0.65166 1.8844 0.831427 1.24564 1.32091C0.574541 1.83516 0.2 2.61736 0.2 3.59482H1.8C1.8 3.05939 1.9851 2.77001 2.21883 2.59091C2.48489 2.38703 2.91591 2.25166 3.5 2.25166V0.65166ZM0.2 3.59482V4.32683H1.8V3.59482H0.2ZM0.2 4.32683C0.2 4.81575 0.295643 5.20381 0.543454 5.55879C0.650492 5.71213 0.772269 5.83898 0.872892 5.94003C0.985763 6.05338 1.07113 6.13376 1.18524 6.25416L2.34655 5.15355C2.21597 5.01576 2.08325 4.88798 2.00664 4.81104C1.91778 4.7218 1.87866 4.67626 1.8554 4.64294C1.84261 4.62462 1.8 4.58235 1.8 4.32683H0.2ZM1.23186 6.29951L5.46596 10.0957L6.53404 8.90435L2.29994 5.1082L1.23186 6.29951ZM5.46596 8.90435L1.23186 12.7005L2.29994 13.8918L6.53404 10.0957L5.46596 8.90435ZM1.18524 12.7458C1.07113 12.8662 0.985763 12.9466 0.872892 13.06C0.772269 13.161 0.650492 13.2879 0.543454 13.4412C0.295643 13.7962 0.2 14.1842 0.2 14.6732H1.8C1.8 14.4177 1.84261 14.3754 1.8554 14.3571C1.87866 14.3237 1.91778 14.2782 2.00664 14.189C2.08325 14.112 2.21597 13.9842 2.34655 13.8465L1.18524 12.7458ZM0.2 14.6732V15.4052H1.8V14.6732H0.2ZM0.2 15.4052C0.2 16.3826 0.574541 17.1648 1.24564 17.6791C1.8844 18.1686 2.70338 18.3483 3.5 18.3483V16.7483C2.91591 16.7483 2.48489 16.613 2.21883 16.4091C1.9851 16.23 1.8 15.9406 1.8 15.4052H0.2ZM3.5 18.3483H8.5V16.7483H3.5V18.3483ZM8.5 18.3483C9.29662 18.3483 10.1156 18.1686 10.7544 17.6791C11.4255 17.1648 11.8 16.3826 11.8 15.4052H10.2C10.2 15.9406 10.0149 16.23 9.78117 16.4091C9.51511 16.613 9.08409 16.7483 8.5 16.7483V18.3483ZM11.8 15.4052V14.6732H10.2V15.4052H11.8ZM11.8 14.6732C11.8 14.1842 11.7044 13.7962 11.4565 13.4412C11.3495 13.2879 11.2277 13.161 11.1271 13.06C11.0142 12.9466 10.9289 12.8662 10.8148 12.7458L9.65345 13.8465C9.78403 13.9842 9.91675 14.112 9.99336 14.189C10.0822 14.2782 10.1213 14.3237 10.1446 14.3571C10.1574 14.3754 10.2 14.4177 10.2 14.6732H11.8ZM10.7681 12.7005L6.53404 8.90435L5.46596 10.0957L9.70006 13.8918L10.7681 12.7005Z" fill="#E5097F"/>
</svg>
