<svg width="51" height="47" viewBox="0 0 51 47" fill="none" xmlns="http://www.w3.org/2000/svg">
<path d="M13.9998 14.0304L14.1093 13.9945L14.9342 13.7238L14.5466 12.947C14.4752 12.8039 14.367 12.4245 14.2491 11.8253C14.1376 11.2584 14.032 10.577 13.9405 9.89608C13.7549 8.51389 13.6389 7.22055 13.6389 6.93075C13.6389 6.93076 13.6389 6.92571 13.6397 6.91474C13.6405 6.90398 13.6419 6.88947 13.6443 6.87087C13.649 6.83323 13.6568 6.78493 13.6684 6.72555C13.6918 6.60634 13.7276 6.45814 13.7751 6.28679C13.87 5.94444 14.0045 5.535 14.1585 5.12439C14.3127 4.71319 14.4818 4.31313 14.6434 3.98697C14.8178 3.63503 14.9455 3.44855 14.9999 3.39382L15.0015 3.39225C15.1306 3.26163 15.4547 3.1226 15.8884 3.02547C16.0814 2.98224 16.2607 2.95477 16.3921 2.9382C16.4572 2.92998 16.5093 2.92461 16.5439 2.92138C16.5612 2.91976 16.574 2.91869 16.5818 2.91807L16.5896 2.91747C16.5896 2.91746 16.5897 2.91746 16.5897 2.91746C16.5898 2.91745 16.5898 2.91745 16.5899 2.91744C16.59 2.91743 16.5901 2.91743 16.5902 2.91742L16.5905 2.9174L16.5905 2.9174L17.2889 2.87031V2.242C17.3052 2.21731 17.3405 2.16958 17.412 2.09883C17.5688 1.94352 17.825 1.75452 18.175 1.5677C18.8727 1.19529 19.8494 0.881397 20.9143 0.836525L20.9149 0.836499C21.3692 0.816993 21.7029 0.793532 21.95 0.776157C22.0302 0.770514 22.1014 0.765513 22.1645 0.761499C22.4246 0.744966 22.5346 0.746433 22.6558 0.76489C22.7955 0.786163 22.9755 0.834149 23.365 0.955369C23.4801 0.991169 23.612 1.03288 23.7634 1.08074C24.1032 1.18816 24.5411 1.32655 25.1054 1.49859C26.6471 1.96863 27.4944 2.51047 28.1303 3.13957C28.6287 3.63275 29.0028 4.17606 29.4795 4.86822C29.6518 5.11846 29.8375 5.38815 30.0473 5.68196C30.2978 6.03427 30.4692 6.64231 30.5354 7.4711C30.5998 8.27739 30.5577 9.19152 30.4675 10.0671C30.3778 10.9389 30.2426 11.7508 30.1295 12.3462C30.0731 12.6433 30.0224 12.885 29.986 13.0515C29.9678 13.1347 29.9533 13.1991 29.9434 13.242L29.9322 13.2901L29.9295 13.3016L29.9289 13.304L29.9288 13.3043L29.9288 13.3044L13.9998 14.0304ZM13.9998 14.0304C13.8564 16.4862 14.3108 17.7935 14.7268 18.4636C14.9485 18.8205 15.169 19.0136 15.3115 19.1126C15.3838 19.1628 15.4388 19.1907 15.4674 19.2038C15.4746 19.2071 15.4802 19.2094 15.484 19.211L15.8998 19.3286L15.9946 19.77C16.7362 23.2259 19.7477 24.3277 22.2126 24.3878C24.6482 24.4472 27.7314 23.3233 28.4721 19.8715L28.5638 19.4441L28.9648 19.3183C28.9666 19.3176 28.969 19.3165 28.9718 19.3153C28.976 19.3134 28.9812 19.311 28.9874 19.308C29.02 19.2923 29.0799 19.2602 29.1576 19.2046C29.3113 19.0947 29.5435 18.8868 29.7753 18.5151C30.1977 17.8378 30.653 16.5587 30.5483 14.2299L13.9998 14.0304Z" stroke="white" stroke-width="1.5"/>
<path d="M37.5588 12.3262C37.5588 13.1883 36.8599 13.8872 35.9978 13.8872C35.1356 13.8872 34.4367 13.1883 34.4367 12.3262C34.4367 11.464 35.1356 10.7651 35.9978 10.7651C36.8599 10.7651 37.5588 11.464 37.5588 12.3262Z" fill="white" stroke="white" stroke-width="1.5"/>
<path d="M45.2626 12.3262C45.2626 13.1883 44.5638 13.8872 43.7016 13.8872C42.8395 13.8872 42.1406 13.1883 42.1406 12.3262C42.1406 11.464 42.8395 10.7651 43.7016 10.7651C44.5638 10.7651 45.2626 11.464 45.2626 12.3262Z" fill="white" stroke="white" stroke-width="1.5"/>
<path d="M29.4503 3.85205H48.8937C49.4298 3.85205 49.8644 4.28661 49.8644 4.82268V19.4438C49.8644 19.9798 49.4298 20.4144 48.8937 20.4144H43.7016L39.6225 25.0374C39.0308 25.7079 37.9241 25.2895 37.9241 24.3952V20.0292H29.0651" stroke="white" stroke-width="1.5"/>
<path d="M24.4691 33.3322L25.2133 33.2392V33.2392L24.4691 33.3322ZM24.5255 32.9332L23.8361 32.6378L23.8361 32.6378L24.5255 32.9332ZM25.458 30.7573L24.7687 30.4618V30.4618L25.458 30.7573ZM25.439 30.1093L26.1098 29.7739L26.1098 29.7739L25.439 30.1093ZM25.0413 29.314L24.3705 29.6494V29.6494L25.0413 29.314ZM20.3604 29.1963L20.9604 29.6463L20.9604 29.6463L20.3604 29.1963ZM19.7032 30.0726L19.1032 29.6226L19.1032 29.6226L19.7032 30.0726ZM19.6115 30.8382L18.9221 31.1337L19.6115 30.8382ZM20.5084 32.9312L19.8191 33.2266L19.8191 33.2266L20.5084 32.9312ZM20.5642 33.3342L21.3079 33.4313L20.5642 33.3342ZM19.7375 39.673L18.9938 39.576L18.9708 39.7518L19.0291 39.9193L19.7375 39.673ZM25.3025 39.9989L26.006 40.2589L26.0694 40.0873L26.0467 39.9059L25.3025 39.9989ZM23.2877 45.4505V46.2005H23.8101L23.9911 45.7105L23.2877 45.4505ZM21.747 45.4505L21.0386 45.6969L21.2138 46.2005H21.747V45.4505ZM25.2148 33.2286L26.1474 31.0527L24.7687 30.4618L23.8361 32.6378L25.2148 33.2286ZM26.1098 29.7739L25.7121 28.9786L24.3705 29.6494L24.7681 30.4447L26.1098 29.7739ZM24.3523 28.1382H20.9767V29.6382H24.3523V28.1382ZM19.7604 28.7463L19.1032 29.6226L20.3032 30.5226L20.9604 29.6463L19.7604 28.7463ZM18.9221 31.1337L19.8191 33.2266L21.1978 32.6357L20.3008 30.5428L18.9221 31.1337ZM19.8191 33.2266C19.8205 33.23 19.821 33.2336 19.8205 33.2372L21.3079 33.4313C21.3432 33.161 21.3051 32.8862 21.1978 32.6357L19.8191 33.2266ZM19.1032 29.6226C18.7769 30.0576 18.7079 30.6338 18.9221 31.1337L20.3008 30.5428C20.2979 30.5361 20.2989 30.5284 20.3032 30.5226L19.1032 29.6226ZM20.9767 28.1382C20.4982 28.1382 20.0475 28.3635 19.7604 28.7463L20.9604 29.6463C20.9643 29.6412 20.9703 29.6382 20.9767 29.6382V28.1382ZM25.7121 28.9786C25.4546 28.4635 24.9282 28.1382 24.3523 28.1382V29.6382C24.36 29.6382 24.3671 29.6425 24.3705 29.6494L25.7121 28.9786ZM26.1474 31.0527C26.3235 30.6417 26.3098 30.1739 26.1098 29.7739L24.7681 30.4447C24.7708 30.4501 24.771 30.4563 24.7687 30.4618L26.1474 31.0527ZM25.2133 33.2392C25.2129 33.2356 25.2134 33.2319 25.2148 33.2286L23.8361 32.6378C23.7298 32.8857 23.6915 33.1575 23.7249 33.4252L25.2133 33.2392ZM19.8205 33.2372L18.9938 39.576L20.4812 39.77L21.3079 33.4313L19.8205 33.2372ZM26.0467 39.9059L25.2133 33.2392L23.7249 33.4252L24.5583 40.0919L26.0467 39.9059ZM24.599 39.7389L22.5842 45.1905L23.9911 45.7105L26.006 40.2589L24.599 39.7389ZM23.2877 44.7005H21.747V46.2005H23.2877V44.7005ZM22.4553 45.2041L20.4458 39.4266L19.0291 39.9193L21.0386 45.6969L22.4553 45.2041Z" fill="white"/>
<path d="M29.6118 28.3383L30.3153 28.5983V28.5983L29.6118 28.3383ZM30.4722 27.8475L30.338 28.5854V28.5854L30.4722 27.8475ZM33.9766 28.4846L34.1108 27.7467L34.1108 27.7467L33.9766 28.4846ZM34.1616 28.5431L34.4759 27.8621V27.8621L34.1616 28.5431ZM42.7447 32.5045L42.4304 33.1855L42.4304 33.1855L42.7447 32.5045ZM2.70576 32.5142L3.01036 33.1996H3.01036L2.70576 32.5142ZM11.6549 28.5368L11.3503 27.8515L11.3503 27.8515L11.6549 28.5368ZM11.8167 28.4854L11.6696 27.7499L11.6696 27.7499L11.8167 28.4854ZM14.9265 27.8634L15.0736 28.5989L14.9265 27.8634ZM15.8052 28.3657L15.0968 28.6121V28.6121L15.8052 28.3657ZM19.7378 39.6721L19.0294 39.9185V39.9185L19.7378 39.6721ZM25.3028 39.998L26.0063 40.258L25.3028 39.998ZM30.338 28.5854L33.8425 29.2225L34.1108 27.7467L30.6064 27.1096L30.338 28.5854ZM33.8474 29.2241L42.4304 33.1855L43.059 31.8236L34.4759 27.8621L33.8474 29.2241ZM43.3373 34.6028V43.1386H44.8373V34.6028H43.3373ZM2.08333 43.1386V34.626H0.583328V43.1386H2.08333ZM3.01036 33.1996L11.9595 29.2222L11.3503 27.8515L2.40115 31.8288L3.01036 33.1996ZM11.9638 29.2208L15.0736 28.5989L14.7794 27.128L11.6696 27.7499L11.9638 29.2208ZM41.7763 44.6996H23.2881V46.1996H41.7763V44.6996ZM23.2881 44.6996H21.7474V46.1996H23.2881V44.6996ZM21.7474 44.6996H3.64435V46.1996H21.7474V44.6996ZM15.0736 28.5989C15.0835 28.5969 15.0934 28.6025 15.0968 28.6121L16.5135 28.1193C16.2641 27.4022 15.5239 26.9791 14.7794 27.128L15.0736 28.5989ZM11.9595 29.2222C11.9609 29.2216 11.9623 29.2211 11.9638 29.2208L11.6696 27.7499C11.5597 27.7719 11.4527 27.806 11.3503 27.8515L11.9595 29.2222ZM2.08333 34.626C2.08333 34.0091 2.44663 33.4501 3.01036 33.1996L2.40115 31.8288C1.29573 32.3201 0.583328 33.4164 0.583328 34.626H2.08333ZM0.583328 43.1386C0.583328 44.8292 1.9538 46.1996 3.64435 46.1996V44.6996C2.78222 44.6996 2.08333 44.0007 2.08333 43.1386H0.583328ZM43.3373 43.1386C43.3373 44.0007 42.6384 44.6996 41.7763 44.6996V46.1996C43.4668 46.1996 44.8373 44.8292 44.8373 43.1386H43.3373ZM42.4304 33.1855C42.9833 33.4407 43.3373 33.994 43.3373 34.6028H44.8373C44.8373 33.4089 44.1431 32.3239 43.059 31.8236L42.4304 33.1855ZM33.8425 29.2225C33.8442 29.2228 33.8458 29.2234 33.8474 29.2241L34.4759 27.8621C34.3596 27.8084 34.2369 27.7697 34.1108 27.7467L33.8425 29.2225ZM30.3153 28.5983C30.3187 28.5891 30.3283 28.5836 30.338 28.5854L30.6064 27.1096C29.8802 26.9775 29.1642 27.3861 28.9083 28.0784L30.3153 28.5983ZM22.4558 45.2032L20.4462 39.4257L19.0294 39.9185L21.039 45.696L22.4558 45.2032ZM20.4462 39.4257L16.5135 28.1193L15.0968 28.6121L19.0294 39.9185L20.4462 39.4257ZM24.5993 39.738L22.5846 45.1896L23.9916 45.7096L26.0063 40.258L24.5993 39.738ZM28.9083 28.0784L24.5993 39.738L26.0063 40.258L30.3153 28.5983L28.9083 28.0784Z" fill="white"/>
</svg>
