<svg width="70" height="30" viewBox="0 0 70 30" fill="none" xmlns="http://www.w3.org/2000/svg">
<path d="M17.3601 6.84286H21.446V19.5233H17.3601V6.84286ZM8.73822 19.9897C4.87912 19.9897 1.75012 16.9419 1.75012 13.1831V13.1769V1.69922H5.83602V6.98945C6.72012 6.59604 7.70292 6.37649 8.73822 6.37649C10.6688 6.37649 12.4153 7.13808 13.6795 8.37013L10.7626 11.2113C10.2446 10.7074 9.52922 10.3951 8.73822 10.3951C7.94792 10.3951 7.23182 10.7074 6.71452 11.2113C6.19652 11.7151 5.87592 12.4126 5.87592 13.1831C5.87592 13.9529 6.19652 14.6504 6.71452 15.1542C7.23182 15.6581 7.94792 15.9704 8.73822 15.9704V19.9897ZM36.0137 19.5233H23.9534L29.7585 10.2185H24.771V6.84286H36.1264L30.1526 16.1197H36.0137V19.5233ZM47.3418 18.0683C46.7972 18.5442 46.1721 18.9785 45.4679 19.3719C44.763 19.7654 43.9699 19.9624 43.0865 19.9624C42.2787 19.9624 41.5416 19.7885 40.8745 19.4408C40.2081 19.0931 39.6348 18.6219 39.156 18.0274C38.6765 17.4329 38.3013 16.751 38.029 15.9826C37.756 15.2142 37.6202 14.409 37.6202 13.5669C37.6202 12.4876 37.7938 11.5085 38.141 10.6304C38.4889 9.75217 38.9866 8.9974 39.6348 8.36604C40.283 7.73467 41.067 7.24513 41.9875 6.8974C42.908 6.55036 43.951 6.37649 45.1158 6.37649C45.8109 6.37649 46.4871 6.45831 47.1444 6.62331C47.8017 6.78763 48.4121 6.99354 48.9756 7.24104C49.5398 7.48785 50.0326 7.74831 50.4554 8.02308C50.8782 8.29717 51.2023 8.55354 51.4277 8.79149L51.399 19.5233H47.3418V18.0683ZM44.5803 16.5588C44.8806 16.5588 45.1718 16.4947 45.4539 16.3665C45.7353 16.2383 45.9985 16.0692 46.2428 15.8592C46.4871 15.6485 46.7027 15.4154 46.891 15.159C47.0786 14.9026 47.2291 14.6469 47.3418 14.3906V10.6576C47.1724 10.5479 46.8952 10.374 46.5102 10.1367C46.1252 9.89876 45.6415 9.77945 45.0591 9.77945C44.1197 9.77945 43.3259 10.0767 42.6784 10.6719C42.0302 11.2665 41.7061 12.1215 41.7061 13.2376C41.7061 14.2808 41.9504 15.0949 42.4383 15.6806C42.9269 16.2663 43.6409 16.5588 44.5803 16.5588ZM68.2501 19.5233H64.1642V12.3322C64.1642 12.0758 64.1215 11.8017 64.0375 11.5085C63.9528 11.216 63.8163 10.9413 63.6287 10.6856C63.4411 10.4292 63.1919 10.2144 62.8818 10.0406C62.5717 9.86672 62.1916 9.77945 61.7408 9.77945C61.0457 9.77945 60.4402 9.90285 59.9229 10.1504C59.407 10.3972 59.0451 10.6119 58.8386 10.7954V19.5233H54.7527V9.03831C55.1468 8.69058 55.6312 8.35717 56.2038 8.03672C56.7764 7.71626 57.3875 7.43263 58.0357 7.18581C58.6832 6.93899 59.3412 6.74195 60.0076 6.59604C60.6747 6.44945 61.3089 6.37649 61.9102 6.37649C62.6991 6.37649 63.4691 6.49513 64.2202 6.73308C64.972 6.97104 65.6482 7.31399 66.2495 7.76263C66.8508 8.21058 67.3345 8.76899 67.7006 9.43649C68.0667 10.1047 68.2501 10.8772 68.2501 11.756V19.5233Z" fill="#00036E"/>
<path fill-rule="evenodd" clip-rule="evenodd" d="M9.00916 16.4678V19.4766C10.6423 19.4119 12.1193 18.7573 13.2225 17.7264L11.0413 15.6025C10.4988 16.0914 9.79106 16.4091 9.00916 16.4678Z" fill="#E5097F"/>
<path fill-rule="evenodd" clip-rule="evenodd" d="M11.2282 15.4201L13.4031 17.5385C14.5189 16.4039 15.2056 14.8692 15.2056 13.183C15.2056 11.5364 14.556 10.0371 13.4941 8.91553L11.3108 11.0421C11.8162 11.6183 12.1214 12.3655 12.1214 13.183C12.1214 14.0496 11.7826 14.8358 11.2282 15.4201Z" fill="#00A0E3"/>
<path d="M35.5406 24.6029C35.43 24.5027 35.2809 24.429 35.0933 24.3827C34.9057 24.3363 34.7349 24.3124 34.5802 24.3124C34.3891 24.3124 34.2085 24.3452 34.0398 24.4093C33.8704 24.474 33.7248 24.5634 33.6037 24.6779C33.4819 24.7931 33.3867 24.9329 33.3167 25.0972C33.2467 25.2622 33.2117 25.4415 33.2117 25.6352C33.2117 25.8281 33.2488 26.0074 33.3223 26.1724C33.3958 26.3374 33.4952 26.4786 33.6205 26.5972C33.7451 26.7152 33.8907 26.8065 34.0559 26.8706C34.2218 26.9354 34.3996 26.9674 34.5914 26.9674C34.7384 26.9674 34.898 26.9477 35.0716 26.9088C35.2445 26.8693 35.3894 26.8031 35.507 26.7097L36.2245 27.7093C35.9816 27.8961 35.7261 28.0406 35.4573 28.1449C35.1892 28.2486 34.8742 28.3004 34.5137 28.3004C34.0944 28.3004 33.7087 28.2309 33.3552 28.0911C33.0024 27.9513 32.6951 27.7597 32.434 27.5163C32.1729 27.2722 31.9699 26.9913 31.8264 26.6722C31.6836 26.3531 31.6115 26.0109 31.6115 25.6454C31.6115 25.2799 31.6836 24.9363 31.8264 24.6138C31.9699 24.2913 32.1729 24.0084 32.434 23.7643C32.6951 23.5209 33.0024 23.3293 33.3552 23.1895C33.7087 23.0497 34.0944 22.9795 34.5137 22.9795C34.8742 22.9795 35.1892 23.032 35.4573 23.1356C35.7261 23.2399 35.9851 23.3845 36.2357 23.5706L35.5406 24.6029ZM36.5997 25.6454C36.5997 25.2799 36.6718 24.9363 36.8146 24.6138C36.9581 24.2913 37.1604 24.0084 37.4222 23.7643C37.6833 23.5209 37.9899 23.3293 38.3434 23.1895C38.6962 23.0497 39.0826 22.9795 39.5019 22.9795C39.9212 22.9795 40.3076 23.0497 40.6611 23.1895C41.0139 23.3293 41.3212 23.5209 41.5823 23.7643C41.8434 24.0084 42.0457 24.2913 42.1892 24.6138C42.3327 24.9363 42.4048 25.2799 42.4048 25.6454C42.4048 26.0109 42.3327 26.3552 42.1892 26.6777C42.0457 27.0002 41.8434 27.2811 41.5823 27.5211C41.3212 27.7611 41.0139 27.9513 40.6611 28.0911C40.3076 28.2309 39.9212 28.3004 39.5019 28.3004C39.0826 28.3004 38.6962 28.2309 38.3434 28.0911C37.9899 27.9513 37.6833 27.7597 37.4222 27.5163C37.1604 27.2722 36.9581 26.9913 36.8146 26.6722C36.6718 26.3531 36.5997 26.0109 36.5997 25.6454ZM38.167 25.6352C38.167 25.8356 38.2034 26.0204 38.2769 26.1881C38.3504 26.3565 38.4498 26.5018 38.5751 26.6238C38.7004 26.7452 38.8439 26.8406 39.0056 26.9088C39.1673 26.977 39.3367 27.0111 39.5131 27.0111C39.6895 27.0111 39.8589 26.977 40.0206 26.9088C40.1823 26.8406 40.3244 26.7452 40.4455 26.6238C40.5673 26.5018 40.6646 26.3565 40.7381 26.1881C40.8116 26.0204 40.8487 25.8356 40.8487 25.6352C40.8487 25.434 40.8116 25.2499 40.7381 25.0809C40.6646 24.9131 40.5673 24.7693 40.4455 24.6513C40.3244 24.5334 40.1823 24.4399 40.0206 24.3718C39.8589 24.3036 39.6895 24.2695 39.5131 24.2695C39.3367 24.2695 39.1652 24.3036 39 24.3718C38.8348 24.4399 38.6913 24.5334 38.5695 24.6513C38.4484 24.7693 38.3504 24.9131 38.2769 25.0809C38.2034 25.2499 38.167 25.434 38.167 25.6352ZM43.3645 23.1622H44.9647V25.957C44.9647 26.0504 44.978 26.1561 45.0032 26.2747C45.0291 26.3927 45.0753 26.5018 45.1411 26.602C45.2076 26.7022 45.2993 26.7888 45.4176 26.8604C45.5352 26.932 45.6822 26.9674 45.8586 26.9674C46.1603 26.9674 46.4144 26.9122 46.6202 26.8011C46.826 26.6899 46.9695 26.5918 47.0507 26.5052V23.1622H48.6509V27.1931C48.5186 27.337 48.3527 27.4747 48.1539 27.607C47.9558 27.7399 47.7346 27.8565 47.4917 27.9568C47.2495 28.057 46.9842 28.1395 46.6972 28.2036C46.4102 28.2684 46.1092 28.3004 45.7928 28.3004C45.4834 28.3004 45.1838 28.254 44.8933 28.1606C44.6028 28.0679 44.3452 27.9315 44.1205 27.7522C43.8965 27.5736 43.7138 27.3513 43.5745 27.0861C43.4345 26.8209 43.3645 26.5161 43.3645 26.1724V23.1622ZM51.5643 23.1731V23.7213C51.6007 23.664 51.6581 23.5945 51.7351 23.512C51.8121 23.4295 51.9045 23.349 52.0109 23.2699C52.118 23.1909 52.2391 23.1234 52.3749 23.0661C52.5114 23.0081 52.6605 22.9795 52.8222 22.9795C53.0868 22.9795 53.3115 23.0231 53.4956 23.109C53.6797 23.1949 53.7896 23.259 53.8267 23.302L53.1533 24.5599C53.1239 24.5313 53.0595 24.4918 52.9601 24.442C52.8607 24.3915 52.6969 24.3663 52.4694 24.3663C52.3364 24.3663 52.2209 24.3895 52.1215 24.4365C52.0221 24.4829 51.9339 24.5422 51.8569 24.6138C51.7792 24.6854 51.7169 24.759 51.6686 24.834C51.621 24.909 51.586 24.9759 51.5643 25.0331V28.1286H49.9641V23.1731H51.5643ZM54.4007 26.6449C54.5771 26.767 54.7703 26.8638 54.9796 26.9354C55.1896 27.007 55.3863 27.0431 55.5704 27.0431C55.9603 27.0431 56.1549 26.8999 56.1549 26.6129C56.1549 26.5052 56.0982 26.4145 55.9841 26.3388C55.87 26.2638 55.6691 26.1649 55.3828 26.0436C55.2281 25.9788 55.0734 25.9018 54.9187 25.8124C54.7647 25.7224 54.6268 25.6168 54.505 25.4954C54.3839 25.3734 54.2866 25.2302 54.2124 25.0652C54.1389 24.9002 54.1025 24.7065 54.1025 24.4849C54.1025 24.2838 54.1431 24.0943 54.2236 23.9149C54.3048 23.7356 54.4259 23.5761 54.5883 23.437C54.75 23.2965 54.9523 23.1854 55.1952 23.1036C55.4374 23.0211 55.7174 22.9795 56.0338 22.9795C56.3649 22.9795 56.6757 23.0177 56.9662 23.0927C57.2567 23.1677 57.487 23.2631 57.6557 23.3777L57.0712 24.3452C56.99 24.2872 56.8689 24.2354 56.7072 24.189C56.5448 24.1427 56.3908 24.1195 56.2431 24.1195C56.052 24.1195 55.9141 24.1584 55.8294 24.2374C55.7447 24.3165 55.7027 24.3949 55.7027 24.474C55.7027 24.6029 55.7853 24.712 55.9512 24.802C56.1164 24.8913 56.3061 24.9861 56.5196 25.0863C56.703 25.1729 56.8724 25.2636 57.0271 25.3604C57.1811 25.4572 57.312 25.5684 57.4184 25.6938C57.5255 25.8193 57.6081 25.9624 57.6669 26.124C57.7257 26.2849 57.7551 26.4731 57.7551 26.6879C57.7551 26.8959 57.7075 27.097 57.6116 27.2899C57.5164 27.4836 57.3799 27.6554 57.2035 27.8061C57.0271 27.9568 56.8136 28.0768 56.563 28.1661C56.3131 28.2554 56.0338 28.3004 55.7244 28.3004C55.3051 28.3004 54.9432 28.2486 54.6373 28.1449C54.3321 28.0406 54.0584 27.9104 53.8155 27.7522L54.4007 26.6449ZM63.1626 27.7413C63.0968 27.7849 63.0121 27.8381 62.9092 27.9029C62.8063 27.9677 62.681 28.0297 62.534 28.0911C62.3863 28.1518 62.2211 28.2022 62.037 28.2411C61.8529 28.2806 61.6471 28.3004 61.4189 28.3004C61.0143 28.3004 60.6356 28.2322 60.2828 28.0965C59.9293 27.9602 59.622 27.772 59.3609 27.532C59.0998 27.292 58.894 27.009 58.7428 26.6831C58.5923 26.3565 58.5167 26.004 58.5167 25.6243C58.5167 25.2445 58.5923 24.8934 58.7428 24.5709C58.894 24.2484 59.0963 23.9688 59.3497 23.7322C59.6038 23.4956 59.8964 23.3115 60.2275 23.1786C60.5586 23.0463 60.9079 22.9795 61.2754 22.9795C61.6142 22.9795 61.932 23.0334 62.2302 23.1411C62.5284 23.2488 62.7874 23.3934 63.0086 23.5761C63.2291 23.7588 63.4034 23.9743 63.5322 24.2211C63.661 24.4686 63.7254 24.7284 63.7254 25.0004C63.7254 25.1511 63.7093 25.2929 63.6757 25.4252C63.6428 25.5574 63.6043 25.6795 63.5602 25.7906C63.5161 25.9018 63.472 25.9965 63.4279 26.0756C63.3831 26.154 63.3502 26.212 63.3285 26.2474H60.1722C60.2898 26.4909 60.4662 26.6736 60.7021 26.7956C60.9373 26.9177 61.2061 26.9784 61.5071 26.9784C61.7059 26.9784 61.897 26.9497 62.0811 26.8924C62.2652 26.8352 62.394 26.7847 62.4675 26.7418L63.1626 27.7413ZM61.3748 24.3124C61.1172 24.3124 60.8785 24.3718 60.6573 24.4897C60.4368 24.6084 60.2716 24.7856 60.161 25.0222H62.2911C62.3128 24.9793 62.324 24.9145 62.324 24.8286C62.324 24.6568 62.2288 24.5279 62.037 24.442C61.8459 24.3554 61.6254 24.3124 61.3748 24.3124ZM64.8958 26.6449C65.0722 26.767 65.2654 26.8638 65.4747 26.9354C65.6847 27.007 65.8814 27.0431 66.0655 27.0431C66.4554 27.0431 66.65 26.8999 66.65 26.6129C66.65 26.5052 66.5933 26.4145 66.4792 26.3388C66.3651 26.2638 66.1642 26.1649 65.8779 26.0436C65.7232 25.9788 65.5685 25.9018 65.4138 25.8124C65.2598 25.7224 65.1219 25.6168 65.0001 25.4954C64.879 25.3734 64.7817 25.2302 64.7075 25.0652C64.634 24.9002 64.5976 24.7065 64.5976 24.4849C64.5976 24.2838 64.6375 24.0943 64.7187 23.9149C64.7999 23.7356 64.921 23.5761 65.0834 23.437C65.2451 23.2965 65.4474 23.1854 65.6903 23.1036C65.9325 23.0211 66.2125 22.9795 66.5289 22.9795C66.86 22.9795 67.1708 23.0177 67.4613 23.0927C67.7518 23.1677 67.9814 23.2631 68.1508 23.3777L67.5663 24.3452C67.4851 24.2872 67.364 24.2354 67.2016 24.189C67.0399 24.1427 66.8852 24.1195 66.7382 24.1195C66.5471 24.1195 66.4092 24.1584 66.3245 24.2374C66.2398 24.3165 66.1978 24.3949 66.1978 24.474C66.1978 24.6029 66.2804 24.712 66.4456 24.802C66.6115 24.8913 66.8012 24.9861 67.014 25.0863C67.1981 25.1729 67.3675 25.2636 67.5222 25.3604C67.6762 25.4572 67.8071 25.5684 67.9135 25.6938C68.0206 25.8193 68.1032 25.9624 68.162 26.124C68.2208 26.2849 68.2502 26.4731 68.2502 26.6879C68.2502 26.8959 68.2026 27.097 68.1067 27.2899C68.0115 27.4836 67.875 27.6554 67.6986 27.8061C67.5222 27.9568 67.3087 28.0768 67.0581 28.1661C66.8082 28.2554 66.5289 28.3004 66.2195 28.3004C65.8002 28.3004 65.4376 28.2486 65.1324 28.1449C64.8272 28.0406 64.5535 27.9104 64.3106 27.7522L64.8958 26.6449Z" fill="#00A0E3"/>
</svg>
