<svg width="78" height="34" viewBox="0 0 78 34" fill="none" xmlns="http://www.w3.org/2000/svg">
<g clip-path="url(#clip0_1_824)">
<path d="M19.3441 7.75524H23.897V22.1264H19.3441V7.75524ZM9.73687 22.655C5.43673 22.655 1.95013 19.2009 1.95013 14.9408V14.9339V1.92578H6.50299V7.92137C7.48813 7.47551 8.58325 7.22669 9.73687 7.22669C11.8881 7.22669 13.8342 8.08983 15.2429 9.48614L11.9926 12.7061C11.4154 12.1351 10.6183 11.7811 9.73687 11.7811C8.85625 11.7811 8.05831 12.1351 7.48189 12.7061C6.90469 13.2771 6.54745 14.0676 6.54745 14.9408C6.54745 15.8132 6.90469 16.6037 7.48189 17.1748C8.05831 17.7458 8.85625 18.0997 9.73687 18.0997V22.655ZM40.1296 22.1264H26.691L33.1595 11.581H27.602V7.75524H40.2552L33.5986 18.269H40.1296V22.1264ZM52.7523 20.4774C52.1455 21.0168 51.4489 21.509 50.6643 21.9549C49.8788 22.4007 48.9951 22.6241 48.0107 22.6241C47.1106 22.6241 46.2892 22.427 45.5459 22.0329C44.8033 21.6388 44.1645 21.1049 43.631 20.4311C43.0967 19.7572 42.6786 18.9845 42.3752 18.1136C42.071 17.2428 41.9197 16.3302 41.9197 15.3759C41.9197 14.1526 42.1131 13.043 42.5 12.0477C42.8877 11.0525 43.4422 10.1971 44.1645 9.48151C44.8868 8.76596 45.7604 8.21114 46.7861 7.81705C47.8118 7.42374 48.974 7.22669 50.2719 7.22669C51.0465 7.22669 51.7999 7.31942 52.5324 7.50642C53.2648 7.69264 53.9449 7.92601 54.5728 8.20651C55.2015 8.48624 55.7506 8.78142 56.2218 9.09283C56.6929 9.40346 57.054 9.69401 57.3052 9.96369L57.2732 22.1264H52.7523V20.4774ZM49.6752 18.7666C50.0098 18.7666 50.3343 18.694 50.6487 18.5487C50.9622 18.4034 51.2555 18.2118 51.5277 17.9738C51.7999 17.735 52.0402 17.4707 52.25 17.1802C52.459 16.8896 52.6267 16.5999 52.7523 16.3093V12.0786C52.5636 11.9542 52.2547 11.7572 51.8257 11.4883C51.3967 11.2186 50.8577 11.0834 50.2087 11.0834C49.162 11.0834 48.2775 11.4203 47.556 12.0949C46.8337 12.7687 46.4725 13.7377 46.4725 15.0026C46.4725 16.1849 46.7448 17.1076 47.2884 17.7713C47.8329 18.4351 48.6285 18.7666 49.6752 18.7666ZM76.0501 22.1264H71.4973V13.9765C71.4973 13.6859 71.4497 13.3753 71.3561 13.043C71.2617 12.7115 71.1096 12.4001 70.9006 12.1103C70.6915 11.8198 70.4139 11.5764 70.0683 11.3793C69.7228 11.1823 69.2992 11.0834 68.7969 11.0834C68.0224 11.0834 67.3477 11.2232 66.7713 11.5037C66.1964 11.7835 65.7931 12.0269 65.563 12.2347V22.1264H61.0102V10.2434C61.4493 9.84933 61.9891 9.47146 62.6271 9.10828C63.2652 8.7451 63.9461 8.42364 64.6684 8.14392C65.3899 7.86419 66.1231 7.64087 66.8656 7.47551C67.609 7.30937 68.3157 7.22669 68.9857 7.22669C69.8647 7.22669 70.7227 7.36114 71.5597 7.63083C72.3974 7.90051 73.1509 8.28919 73.8209 8.79764C74.4909 9.30533 75.0299 9.93819 75.4378 10.6947C75.8458 11.452 76.0501 12.3275 76.0501 13.3235V22.1264Z" fill="white"/>
<path fill-rule="evenodd" clip-rule="evenodd" d="M10.0388 18.6642V22.0742C11.8585 22.0008 13.5043 21.259 14.7336 20.0906L12.3031 17.6836C11.6986 18.2376 10.91 18.5977 10.0388 18.6642Z" fill="#E5097F"/>
<path fill-rule="evenodd" clip-rule="evenodd" d="M12.5115 17.4763L14.9349 19.8772C16.1783 18.5914 16.9434 16.8519 16.9434 14.941C16.9434 13.0749 16.2196 11.3756 15.0363 10.1045L12.6035 12.5146C13.1667 13.1676 13.5068 14.0145 13.5068 14.941C13.5068 15.9231 13.1292 16.8141 12.5115 17.4763Z" fill="#00A0E3"/>
<path d="M39.6024 27.8828C39.4792 27.7692 39.3131 27.6858 39.104 27.6332C38.895 27.5807 38.7047 27.5536 38.5323 27.5536C38.3193 27.5536 38.1181 27.5907 37.9301 27.6634C37.7414 27.7368 37.5791 27.838 37.4442 27.9678C37.3085 28.0984 37.2024 28.2568 37.1244 28.4431C37.0464 28.6301 37.0074 28.8333 37.0074 29.0527C37.0074 29.2714 37.0487 29.4746 37.1306 29.6616C37.2125 29.8486 37.3233 30.0086 37.4629 30.1431C37.6017 30.2767 37.764 30.3803 37.9481 30.4529C38.1329 30.5263 38.331 30.5626 38.5448 30.5626C38.7086 30.5626 38.8864 30.5402 39.0798 30.4962C39.2725 30.4514 39.434 30.3764 39.565 30.2706L40.3645 31.4034C40.0938 31.6151 39.8091 31.7789 39.5096 31.8972C39.2109 32.0146 38.8599 32.0733 38.4582 32.0733C37.991 32.0733 37.5612 31.9945 37.1673 31.8361C36.7742 31.6777 36.4317 31.4606 36.1408 31.1847C35.8499 30.9081 35.6237 30.5897 35.4638 30.2281C35.3046 29.8664 35.2243 29.4785 35.2243 29.0643C35.2243 28.6502 35.3046 28.2607 35.4638 27.8952C35.6237 27.5297 35.8499 27.209 36.1408 26.9324C36.4317 26.6565 36.7742 26.4394 37.1673 26.281C37.5612 26.1226 37.991 26.043 38.4582 26.043C38.8599 26.043 39.2109 26.1025 39.5096 26.2199C39.8091 26.3382 40.0977 26.502 40.377 26.7129L39.6024 27.8828ZM40.7826 29.0643C40.7826 28.6502 40.8629 28.2607 41.022 27.8952C41.1819 27.5297 41.4074 27.209 41.6991 26.9324C41.99 26.6565 42.3317 26.4394 42.7256 26.281C43.1187 26.1226 43.5492 26.043 44.0165 26.043C44.4837 26.043 44.9142 26.1226 45.3081 26.281C45.7013 26.4394 46.0437 26.6565 46.3346 26.9324C46.6256 27.209 46.851 27.5297 47.0109 27.8952C47.1708 28.2607 47.2511 28.6502 47.2511 29.0643C47.2511 29.4785 47.1708 29.8687 47.0109 30.2342C46.851 30.5997 46.6256 30.9181 46.3346 31.1901C46.0437 31.4621 45.7013 31.6777 45.3081 31.8361C44.9142 31.9945 44.4837 32.0733 44.0165 32.0733C43.5492 32.0733 43.1187 31.9945 42.7256 31.8361C42.3317 31.6777 41.99 31.4606 41.6991 31.1847C41.4074 30.9081 41.1819 30.5897 41.022 30.2281C40.8629 29.8664 40.7826 29.4785 40.7826 29.0643ZM42.529 29.0527C42.529 29.2799 42.5696 29.4893 42.6515 29.6794C42.7334 29.8703 42.8441 30.0349 42.9837 30.1732C43.1234 30.3107 43.2833 30.4189 43.4634 30.4962C43.6436 30.5735 43.8324 30.6121 44.0289 30.6121C44.2255 30.6121 44.4143 30.5735 44.5944 30.4962C44.7746 30.4189 44.933 30.3107 45.0679 30.1732C45.2036 30.0349 45.312 29.8703 45.3939 29.6794C45.4758 29.4893 45.5172 29.2799 45.5172 29.0527C45.5172 28.8248 45.4758 28.6162 45.3939 28.4245C45.312 28.2344 45.2036 28.0714 45.0679 27.9377C44.933 27.804 44.7746 27.6982 44.5944 27.6209C44.4143 27.5436 44.2255 27.505 44.0289 27.505C43.8324 27.505 43.6413 27.5436 43.4572 27.6209C43.2731 27.6982 43.1132 27.804 42.9775 27.9377C42.8426 28.0714 42.7334 28.2344 42.6515 28.4245C42.5696 28.6162 42.529 28.8248 42.529 29.0527ZM48.3205 26.2501H50.1036V29.4175C50.1036 29.5233 50.1184 29.6431 50.1465 29.7776C50.1753 29.9112 50.2268 30.0349 50.3001 30.1485C50.3742 30.2621 50.4764 30.3602 50.6082 30.4413C50.7393 30.5225 50.9031 30.5626 51.0996 30.5626C51.4358 30.5626 51.719 30.5001 51.9483 30.3741C52.1776 30.2481 52.3375 30.1369 52.428 30.0387V26.2501H54.2111V30.8184C54.0636 30.9815 53.8788 31.1376 53.6573 31.2875C53.4365 31.4382 53.19 31.5703 52.9194 31.6839C52.6495 31.7975 52.3539 31.891 52.0341 31.9636C51.7143 32.037 51.3789 32.0733 51.0263 32.0733C50.6816 32.0733 50.3477 32.0208 50.024 31.9149C49.7003 31.8098 49.4133 31.6553 49.1629 31.4521C48.9133 31.2496 48.7097 30.9977 48.5545 30.6971C48.3985 30.3965 48.3205 30.0511 48.3205 29.6616V26.2501ZM57.4574 26.2624V26.8837C57.498 26.8188 57.5619 26.74 57.6477 26.6465C57.7335 26.553 57.8365 26.4618 57.9551 26.3722C58.0744 26.2825 58.2093 26.206 58.3607 26.1411C58.5128 26.0754 58.6789 26.043 58.8591 26.043C59.1539 26.043 59.4043 26.0924 59.6094 26.1898C59.8146 26.2872 59.937 26.3598 59.9784 26.4085L59.228 27.8342C59.1953 27.8017 59.1235 27.7569 59.0127 27.7005C58.902 27.6433 58.7195 27.6147 58.466 27.6147C58.3178 27.6147 58.1891 27.641 58.0783 27.6943C57.9675 27.7468 57.8693 27.8141 57.7835 27.8952C57.6969 27.9763 57.6275 28.0598 57.5736 28.1448C57.5206 28.2298 57.4816 28.3055 57.4574 28.3704V31.8786H55.6743V26.2624H57.4574ZM60.618 30.1972C60.8145 30.3355 61.0298 30.4452 61.263 30.5263C61.497 30.6075 61.7162 30.6484 61.9214 30.6484C62.3558 30.6484 62.5727 30.4862 62.5727 30.1608C62.5727 30.0387 62.5095 29.936 62.3823 29.8502C62.2552 29.7652 62.0313 29.6532 61.7123 29.5156C61.5399 29.4422 61.3676 29.3549 61.1952 29.2536C61.0236 29.1516 60.8699 29.0319 60.7342 28.8943C60.5993 28.756 60.4908 28.5937 60.4082 28.4067C60.3263 28.2197 60.2857 28.0003 60.2857 27.7491C60.2857 27.5212 60.3309 27.3064 60.4206 27.1032C60.5111 26.8999 60.6461 26.7191 60.827 26.5615C61.0072 26.4023 61.2326 26.2763 61.5033 26.1836C61.7732 26.0901 62.0852 26.043 62.4377 26.043C62.8067 26.043 63.153 26.0862 63.4767 26.1712C63.8004 26.2562 64.057 26.3644 64.245 26.4942L63.5937 27.5907C63.5032 27.5251 63.3683 27.4663 63.1881 27.4138C63.0071 27.3612 62.8355 27.335 62.6709 27.335C62.458 27.335 62.3043 27.379 62.21 27.4687C62.1156 27.5583 62.0688 27.6472 62.0688 27.7368C62.0688 27.8828 62.1608 28.0065 62.3457 28.1085C62.5298 28.2097 62.7411 28.3171 62.979 28.4307C63.1834 28.5288 63.3722 28.6316 63.5445 28.7413C63.7161 28.8511 63.862 28.977 63.9806 29.1192C64.0999 29.2614 64.1919 29.4237 64.2575 29.6068C64.323 29.7892 64.3557 30.0024 64.3557 30.2458C64.3557 30.4815 64.3027 30.7095 64.1958 30.9282C64.0898 31.1476 63.9377 31.3423 63.7411 31.5131C63.5445 31.6839 63.3066 31.8199 63.0274 31.9211C62.7489 32.0223 62.4377 32.0733 62.093 32.0733C61.6257 32.0733 61.2225 32.0146 60.8816 31.8972C60.5415 31.7789 60.2366 31.6313 59.9659 31.4521L60.618 30.1972ZM70.3812 31.4397C70.3079 31.4892 70.2135 31.5494 70.0989 31.6228C69.9842 31.6962 69.8446 31.7666 69.6808 31.8361C69.5162 31.9049 69.3321 31.9621 69.127 32.0061C68.9219 32.0509 68.6925 32.0733 68.4383 32.0733C67.9874 32.0733 67.5654 31.9961 67.1723 31.8423C66.7784 31.6877 66.436 31.4745 66.1451 31.2025C65.8541 30.9305 65.6248 30.6098 65.4563 30.2404C65.2886 29.8703 65.2044 29.4708 65.2044 29.0404C65.2044 28.61 65.2886 28.212 65.4563 27.8465C65.6248 27.481 65.8502 27.1642 66.1326 26.8961C66.4157 26.6279 66.7418 26.4193 67.1107 26.2686C67.4796 26.1187 67.8689 26.043 68.2784 26.043C68.6559 26.043 69.01 26.104 69.3423 26.2261C69.6746 26.3482 69.9632 26.512 70.2096 26.7191C70.4553 26.9262 70.6496 27.1704 70.7931 27.4501C70.9366 27.7306 71.0084 28.025 71.0084 28.3333C71.0084 28.5041 70.9904 28.6648 70.953 28.8147C70.9163 28.9647 70.8734 29.103 70.8243 29.2289C70.7751 29.3549 70.726 29.4623 70.6769 29.5519C70.6269 29.6408 70.5903 29.7065 70.5661 29.7466H67.0491C67.1801 30.0225 67.3767 30.2296 67.6395 30.3679C67.9016 30.5062 68.2011 30.575 68.5365 30.575C68.7581 30.575 68.971 30.5426 69.1761 30.4777C69.3813 30.4127 69.5248 30.3556 69.6067 30.3069L70.3812 31.4397ZM68.3891 27.5536C68.1021 27.5536 67.8361 27.6209 67.5896 27.7546C67.3439 27.889 67.1598 28.0899 67.0366 28.3581H69.4101C69.4343 28.3094 69.4468 28.236 69.4468 28.1386C69.4468 27.9439 69.3407 27.7978 69.127 27.7005C68.9141 27.6023 68.6684 27.5536 68.3891 27.5536ZM72.3125 30.1972C72.5091 30.3355 72.7244 30.4452 72.9576 30.5263C73.1916 30.6075 73.4108 30.6484 73.6159 30.6484C74.0504 30.6484 74.2672 30.4862 74.2672 30.1608C74.2672 30.0387 74.204 29.936 74.0769 29.8502C73.9497 29.7652 73.7259 29.6532 73.4069 29.5156C73.2345 29.4422 73.0621 29.3549 72.8897 29.2536C72.7181 29.1516 72.5645 29.0319 72.4287 28.8943C72.2938 28.756 72.1854 28.5937 72.1027 28.4067C72.0208 28.2197 71.9802 28.0003 71.9802 27.7491C71.9802 27.5212 72.0247 27.3064 72.1152 27.1032C72.2057 26.8999 72.3406 26.7191 72.5216 26.5615C72.7017 26.4023 72.9272 26.2763 73.1978 26.1836C73.4677 26.0901 73.7797 26.043 74.1323 26.043C74.5012 26.043 74.8475 26.0862 75.1712 26.1712C75.4949 26.2562 75.7508 26.3644 75.9395 26.4942L75.2882 27.5907C75.1977 27.5251 75.0628 27.4663 74.8818 27.4138C74.7017 27.3612 74.5293 27.335 74.3655 27.335C74.1525 27.335 73.9989 27.379 73.9045 27.4687C73.8101 27.5583 73.7633 27.6472 73.7633 27.7368C73.7633 27.8828 73.8554 28.0065 74.0394 28.1085C74.2243 28.2097 74.4357 28.3171 74.6728 28.4307C74.8779 28.5288 75.0667 28.6316 75.2391 28.7413C75.4107 28.8511 75.5565 28.977 75.6751 29.1192C75.7944 29.2614 75.8865 29.4237 75.952 29.6068C76.0175 29.7892 76.0503 30.0024 76.0503 30.2458C76.0503 30.4815 75.9972 30.7095 75.8904 30.9282C75.7843 31.1476 75.6322 31.3423 75.4356 31.5131C75.2391 31.6839 75.0012 31.8199 74.7219 31.9211C74.4435 32.0223 74.1323 32.0733 73.7875 32.0733C73.3203 32.0733 72.9162 32.0146 72.5762 31.8972C72.2361 31.7789 71.9311 31.6313 71.6604 31.4521L72.3125 30.1972Z" fill="#00A0E3"/>
</g>
<defs>
<clipPath id="clip0_1_824">
<rect width="78" height="34" fill="white"/>
</clipPath>
</defs>
</svg>
